<svg width="1587" height="708" viewBox="0 0 1587 708" fill="none" xmlns="http://www.w3.org/2000/svg">
<rect opacity="0.3" y="0.238525" width="1587" height="707" fill="#7B32B5" fill-opacity="0.3"/>
<mask id="mask0_643_614" style="mask-type:alpha" maskUnits="userSpaceOnUse" x="0" y="185" width="1631" height="523">
<rect y="185.488" width="1631" height="522.172" fill="url(#paint0_linear_643_614)"/>
</mask>
<g mask="url(#mask0_643_614)">
<g opacity="0.1">
<g clip-path="url(#clip0_643_614)">
<path d="M554.579 197.372H497.265V642.023H554.579V197.372Z" fill="#8A9DAE"/>
<path d="M567.453 197.372H510.139V642.023H567.453V197.372Z" fill="#D5E7F7"/>
<path d="M510.154 222.949H567.454V197.253H510.154V222.949Z" fill="#8A9DAE"/>
<path d="M510.154 278.678H567.454V252.983H510.154V278.678Z" fill="#8A9DAE"/>
<path d="M510.154 334.402H567.454V308.706H510.154V334.402Z" fill="#8A9DAE"/>
<path d="M510.154 390.126H567.454V364.431H510.154V390.126Z" fill="#8A9DAE"/>
<path d="M510.154 445.856H567.454V420.16H510.154V445.856Z" fill="#8A9DAE"/>
<path d="M510.154 501.58H567.454V475.884H510.154V501.58Z" fill="#8A9DAE"/>
<path d="M510.154 557.316H567.454V531.62H510.154V557.316Z" fill="#8A9DAE"/>
<path d="M510.154 613.039H567.454V587.344H510.154V613.039Z" fill="#8A9DAE"/>
<path d="M646.201 260.287H588.886V642.017H646.201V260.287Z" fill="#8A9DAE"/>
<path d="M659.075 260.287H601.76V642.017H659.075V260.287Z" fill="#D5E7F7"/>
<path d="M601.776 282.247H659.075V260.191H601.776V282.247Z" fill="#8A9DAE"/>
<path d="M601.776 330.094H659.075V308.038H601.776V330.094Z" fill="#8A9DAE"/>
<path d="M601.776 377.929H659.075V355.873H601.776V377.929Z" fill="#8A9DAE"/>
<path d="M601.776 425.77H659.075V403.714H601.776V425.77Z" fill="#8A9DAE"/>
<path d="M601.776 473.616H659.075V451.561H601.776V473.616Z" fill="#8A9DAE"/>
<path d="M601.776 521.457H659.075V499.402H601.776V521.457Z" fill="#8A9DAE"/>
<path d="M601.776 569.298H659.075V547.243H601.776V569.298Z" fill="#8A9DAE"/>
<path d="M601.776 617.139H659.075V595.084H601.776V617.139Z" fill="#8A9DAE"/>
<path d="M466.246 684.219H490.248V628.382H466.246V684.219Z" fill="#DCEAF9"/>
<path d="M473.577 552.213V707.229H219.349H217.617L152.751 706.233C152.695 706.078 152.631 705.898 152.552 705.69C152.448 705.391 152.321 705.039 152.178 704.639L152.003 704.21C151.808 703.661 151.591 703.016 151.348 702.33C151.053 701.471 150.72 700.486 150.353 699.394C148.988 695.312 147.178 689.655 145.117 682.625C144.438 680.318 143.739 677.862 143.018 675.256C142.73 674.217 142.442 673.167 142.15 672.087C141.866 671.049 141.582 669.98 141.298 668.894L141.268 668.787C141.073 668.041 140.871 667.289 140.673 666.513C140.475 665.738 140.261 664.932 140.052 664.126C138.99 659.949 137.905 655.545 136.824 650.885C136.794 650.765 136.768 650.634 136.738 650.515C136.03 647.463 135.327 644.317 134.628 641.074C134.254 639.284 133.88 637.494 133.484 635.644L133.417 635.298C133.248 634.48 133.084 633.663 132.915 632.839C132.777 632.141 132.639 631.449 132.504 630.751C132.22 629.307 131.937 627.848 131.655 626.376C131.281 624.491 130.937 622.569 130.585 620.63C130.111 617.992 129.647 615.311 129.194 612.586L128.79 610.127C128.393 607.663 128 605.168 127.623 602.644C127.499 601.832 127.38 601.021 127.249 600.203C127.17 599.702 127.099 599.195 127.028 598.694C126.457 594.715 125.916 590.643 125.405 586.478C124.846 581.911 124.335 577.261 123.871 572.526C123.445 568.15 123.063 563.713 122.726 559.213C122.412 554.968 122.145 550.67 121.926 546.317C121.406 536.173 121.178 525.7 121.271 515.06C121.427 495.899 122.77 476.81 125.281 458.071C125.375 457.367 125.472 456.669 125.569 455.959C126.218 451.356 126.946 446.745 127.754 442.126C128.369 438.597 129.035 435.071 129.751 431.546C130.275 428.992 130.822 426.434 131.393 423.872C132.695 418.079 134.143 412.285 135.739 406.489H137.097V401.715C145.771 371.878 158.556 342.279 176.745 314.304L177.767 312.74H178.829V372.039H211.744V275.348H248.026V338.072H256.304V263.217H292.586V403.588H338.492V485.456H355.642V506.091H395.039V470.579H417.661V374.056H445.625V552.213H473.577Z" fill="#D5E7F7"/>
<path d="M256.326 286.967H292.642V272.663H256.326V286.967Z" fill="#8A9DAE"/>
<path d="M256.326 313.844H292.642V299.541H256.326V313.844Z" fill="#8A9DAE"/>
<path d="M256.326 338.025H292.642V323.721H256.326V338.025Z" fill="#8A9DAE"/>
<path d="M211.763 338.025H248.079V323.721H211.763V338.025Z" fill="#8A9DAE"/>
<path d="M211.763 313.844H248.079V299.541H211.763V313.844Z" fill="#8A9DAE"/>
<path d="M211.763 289.706H248.079V275.402H211.763V289.706Z" fill="#8A9DAE"/>
<path d="M211.752 361.464H292.642V347.16H211.752V361.464Z" fill="#8A9DAE"/>
<path d="M211.752 384.911H292.642V370.607H211.752V384.911Z" fill="#8A9DAE"/>
<path d="M417.437 396.153H445.625V374.074H417.437V396.153Z" fill="#8A9DAE"/>
<path d="M417.437 428.992H445.625V406.912H417.437V428.992Z" fill="#8A9DAE"/>
<path d="M417.437 461.831H445.625V439.751H417.437V461.831Z" fill="#8A9DAE"/>
<path d="M417.437 496.251H445.625V474.171H417.437V496.251Z" fill="#8A9DAE"/>
<path d="M417.437 529.609H445.625V507.529H417.437V529.609Z" fill="#8A9DAE"/>
<path d="M417.437 562.961H445.625V540.881H417.437V562.961Z" fill="#8A9DAE"/>
<path d="M417.437 597.858H445.625V575.779H417.437V597.858Z" fill="#8A9DAE"/>
<path d="M211.752 402.592H292.642V393.51H211.752V402.592Z" fill="#8A9DAE"/>
<path d="M417.83 374.068H407.435V470.567H417.83V374.068Z" fill="#8A9DAE"/>
<path d="M395.073 470.567H374.168V506.085H395.073V470.567Z" fill="#8A9DAE"/>
<path d="M211.763 275.396V289.718V347.173V371.985H204.548V276.536L205.52 275.396H211.763Z" fill="#8A9DAE"/>
<path d="M256.326 263.193H251.898V338.024H256.326V263.193Z" fill="#8A9DAE"/>
<g opacity="0.8">
<path opacity="0.8" d="M324.87 431.51H331.022V417.672H324.87V431.51Z" fill="#8A9DAE"/>
<path opacity="0.8" d="M313.367 431.51H319.52V417.672H313.367V431.51Z" fill="#8A9DAE"/>
<path opacity="0.8" d="M302.116 431.51H308.269V417.672H302.116V431.51Z" fill="#8A9DAE"/>
<path opacity="0.8" d="M291.452 431.51H297.605V417.672H291.452V431.51Z" fill="#8A9DAE"/>
<path opacity="0.8" d="M280.583 431.51H286.736V417.672H280.583V431.51Z" fill="#8A9DAE"/>
<path opacity="0.8" d="M269.586 431.51H275.739V417.672H269.586V431.51Z" fill="#8A9DAE"/>
<path opacity="0.8" d="M258.08 431.51H264.233V417.672H258.08V431.51Z" fill="#8A9DAE"/>
<path opacity="0.8" d="M246.829 431.51H252.982V417.672H246.829V431.51Z" fill="#8A9DAE"/>
<path opacity="0.8" d="M236.169 431.51H242.322V417.672H236.169V431.51Z" fill="#8A9DAE"/>
<path opacity="0.8" d="M225.296 431.51H231.449V417.672H225.296V431.51Z" fill="#8A9DAE"/>
<path opacity="0.8" d="M213.97 431.51H220.123V417.672H213.97V431.51Z" fill="#8A9DAE"/>
<path opacity="0.8" d="M202.464 431.51H208.617V417.672H202.464V431.51Z" fill="#8A9DAE"/>
<path opacity="0.8" d="M191.213 431.51H197.366V417.672H191.213V431.51Z" fill="#8A9DAE"/>
<path opacity="0.8" d="M180.546 431.51H186.698V417.672H180.546V431.51Z" fill="#8A9DAE"/>
<path opacity="0.8" d="M169.68 431.51H175.833V417.672H169.68V431.51Z" fill="#8A9DAE"/>
<path opacity="0.8" d="M158.683 431.51H164.836V417.672H158.683V431.51Z" fill="#8A9DAE"/>
<path opacity="0.8" d="M147.178 431.51H153.331V417.672H147.178V431.51Z" fill="#8A9DAE"/>
<path opacity="0.8" d="M135.93 431.51H142.083V417.672H135.93V431.51Z" fill="#8A9DAE"/>
<path opacity="0.8" d="M131.43 423.836V431.498H129.788C130.302 428.952 130.849 426.398 131.43 423.836Z" fill="#8A9DAE"/>
<path opacity="0.8" d="M324.87 455.923H331.022V442.085H324.87V455.923Z" fill="#8A9DAE"/>
<path opacity="0.8" d="M313.367 455.923H319.52V442.085H313.367V455.923Z" fill="#8A9DAE"/>
<path opacity="0.8" d="M302.116 455.923H308.269V442.085H302.116V455.923Z" fill="#8A9DAE"/>
<path opacity="0.8" d="M291.452 455.923H297.605V442.085H291.452V455.923Z" fill="#8A9DAE"/>
<path opacity="0.8" d="M280.583 455.923H286.736V442.085H280.583V455.923Z" fill="#8A9DAE"/>
<path opacity="0.8" d="M269.586 455.923H275.739V442.085H269.586V455.923Z" fill="#8A9DAE"/>
<path opacity="0.8" d="M258.08 455.923H264.233V442.085H258.08V455.923Z" fill="#8A9DAE"/>
<path opacity="0.8" d="M246.829 455.923H252.982V442.085H246.829V455.923Z" fill="#8A9DAE"/>
<path opacity="0.8" d="M236.169 455.923H242.322V442.085H236.169V455.923Z" fill="#8A9DAE"/>
<path opacity="0.8" d="M225.296 455.923H231.449V442.085H225.296V455.923Z" fill="#8A9DAE"/>
<path opacity="0.8" d="M213.97 455.923H220.123V442.085H213.97V455.923Z" fill="#8A9DAE"/>
<path opacity="0.8" d="M202.464 455.923H208.617V442.085H202.464V455.923Z" fill="#8A9DAE"/>
<path opacity="0.8" d="M191.213 455.923H197.366V442.085H191.213V455.923Z" fill="#8A9DAE"/>
<path opacity="0.8" d="M180.546 455.923H186.698V442.085H180.546V455.923Z" fill="#8A9DAE"/>
<path opacity="0.8" d="M169.68 455.923H175.833V442.085H169.68V455.923Z" fill="#8A9DAE"/>
<path opacity="0.8" d="M158.683 455.923H164.836V442.085H158.683V455.923Z" fill="#8A9DAE"/>
<path opacity="0.8" d="M147.178 455.923H153.331V442.085H147.178V455.923Z" fill="#8A9DAE"/>
<path opacity="0.8" d="M135.93 455.923H142.083V442.085H135.93V455.923Z" fill="#8A9DAE"/>
<path opacity="0.8" d="M131.43 442.09V455.923H125.592C126.24 451.32 126.968 446.709 127.776 442.09H131.43Z" fill="#8A9DAE"/>
<path opacity="0.8" d="M324.87 479.966H331.022V466.127H324.87V479.966Z" fill="#8A9DAE"/>
<path opacity="0.8" d="M313.367 479.966H319.52V466.127H313.367V479.966Z" fill="#8A9DAE"/>
<path opacity="0.8" d="M302.116 479.966H308.269V466.127H302.116V479.966Z" fill="#8A9DAE"/>
<path opacity="0.8" d="M291.452 479.966H297.605V466.127H291.452V479.966Z" fill="#8A9DAE"/>
<path opacity="0.8" d="M280.583 479.966H286.736V466.127H280.583V479.966Z" fill="#8A9DAE"/>
<path opacity="0.8" d="M269.586 479.966H275.739V466.127H269.586V479.966Z" fill="#8A9DAE"/>
<path opacity="0.8" d="M258.08 479.966H264.233V466.127H258.08V479.966Z" fill="#8A9DAE"/>
<path opacity="0.8" d="M246.829 479.966H252.982V466.127H246.829V479.966Z" fill="#8A9DAE"/>
<path opacity="0.8" d="M236.169 479.966H242.322V466.127H236.169V479.966Z" fill="#8A9DAE"/>
<path opacity="0.8" d="M225.296 479.966H231.449V466.127H225.296V479.966Z" fill="#8A9DAE"/>
<path opacity="0.8" d="M213.97 479.966H220.123V466.127H213.97V479.966Z" fill="#8A9DAE"/>
<path opacity="0.8" d="M202.464 479.966H208.617V466.127H202.464V479.966Z" fill="#8A9DAE"/>
<path opacity="0.8" d="M191.213 479.966H197.366V466.127H191.213V479.966Z" fill="#8A9DAE"/>
<path opacity="0.8" d="M180.546 479.966H186.698V466.127H180.546V479.966Z" fill="#8A9DAE"/>
<path opacity="0.8" d="M169.68 479.966H175.833V466.127H169.68V479.966Z" fill="#8A9DAE"/>
<path opacity="0.8" d="M158.683 479.966H164.836V466.127H158.683V479.966Z" fill="#8A9DAE"/>
<path opacity="0.8" d="M147.178 479.966H153.331V466.127H147.178V479.966Z" fill="#8A9DAE"/>
<path opacity="0.8" d="M135.93 479.966H142.083V466.127H135.93V479.966Z" fill="#8A9DAE"/>
<path opacity="0.8" d="M125.263 479.966H131.416V466.127H125.263V479.966Z" fill="#8A9DAE"/>
<path opacity="0.8" d="M324.87 505.518H331.022V491.68H324.87V505.518Z" fill="#8A9DAE"/>
<path opacity="0.8" d="M313.367 505.518H319.52V491.68H313.367V505.518Z" fill="#8A9DAE"/>
<path opacity="0.8" d="M302.116 505.518H308.269V491.68H302.116V505.518Z" fill="#8A9DAE"/>
<path opacity="0.8" d="M291.452 505.518H297.605V491.68H291.452V505.518Z" fill="#8A9DAE"/>
<path opacity="0.8" d="M280.583 505.518H286.736V491.68H280.583V505.518Z" fill="#8A9DAE"/>
<path opacity="0.8" d="M269.586 505.518H275.739V491.68H269.586V505.518Z" fill="#8A9DAE"/>
<path opacity="0.8" d="M258.08 505.518H264.233V491.68H258.08V505.518Z" fill="#8A9DAE"/>
<path opacity="0.8" d="M246.829 505.518H252.982V491.68H246.829V505.518Z" fill="#8A9DAE"/>
<path opacity="0.8" d="M236.169 505.518H242.322V491.68H236.169V505.518Z" fill="#8A9DAE"/>
<path opacity="0.8" d="M225.296 505.518H231.449V491.68H225.296V505.518Z" fill="#8A9DAE"/>
<path opacity="0.8" d="M213.97 505.518H220.123V491.68H213.97V505.518Z" fill="#8A9DAE"/>
<path opacity="0.8" d="M202.464 505.518H208.617V491.68H202.464V505.518Z" fill="#8A9DAE"/>
<path opacity="0.8" d="M191.213 505.518H197.366V491.68H191.213V505.518Z" fill="#8A9DAE"/>
<path opacity="0.8" d="M180.546 505.518H186.698V491.68H180.546V505.518Z" fill="#8A9DAE"/>
<path opacity="0.8" d="M169.68 505.518H175.833V491.68H169.68V505.518Z" fill="#8A9DAE"/>
<path opacity="0.8" d="M158.683 505.518H164.836V491.68H158.683V505.518Z" fill="#8A9DAE"/>
<path opacity="0.8" d="M147.178 505.518H153.331V491.68H147.178V505.518Z" fill="#8A9DAE"/>
<path opacity="0.8" d="M135.93 505.518H142.083V491.68H135.93V505.518Z" fill="#8A9DAE"/>
<path opacity="0.8" d="M125.263 505.518H131.416V491.68H125.263V505.518Z" fill="#8A9DAE"/>
<path opacity="0.8" d="M324.87 529.931H331.022V516.093H324.87V529.931Z" fill="#8A9DAE"/>
<path opacity="0.8" d="M313.367 529.931H319.52V516.093H313.367V529.931Z" fill="#8A9DAE"/>
<path opacity="0.8" d="M302.116 529.931H308.269V516.093H302.116V529.931Z" fill="#8A9DAE"/>
<path opacity="0.8" d="M291.452 529.931H297.605V516.093H291.452V529.931Z" fill="#8A9DAE"/>
<path opacity="0.8" d="M280.583 529.931H286.736V516.093H280.583V529.931Z" fill="#8A9DAE"/>
<path opacity="0.8" d="M269.586 529.931H275.739V516.093H269.586V529.931Z" fill="#8A9DAE"/>
<path opacity="0.8" d="M258.08 529.931H264.233V516.093H258.08V529.931Z" fill="#8A9DAE"/>
<path opacity="0.8" d="M246.829 529.931H252.982V516.093H246.829V529.931Z" fill="#8A9DAE"/>
<path opacity="0.8" d="M236.169 529.931H242.322V516.093H236.169V529.931Z" fill="#8A9DAE"/>
<path opacity="0.8" d="M225.296 529.931H231.449V516.093H225.296V529.931Z" fill="#8A9DAE"/>
<path opacity="0.8" d="M213.97 529.931H220.123V516.093H213.97V529.931Z" fill="#8A9DAE"/>
<path opacity="0.8" d="M202.464 529.931H208.617V516.093H202.464V529.931Z" fill="#8A9DAE"/>
<path opacity="0.8" d="M191.213 529.931H197.366V516.093H191.213V529.931Z" fill="#8A9DAE"/>
<path opacity="0.8" d="M180.546 529.931H186.698V516.093H180.546V529.931Z" fill="#8A9DAE"/>
<path opacity="0.8" d="M169.68 529.931H175.833V516.093H169.68V529.931Z" fill="#8A9DAE"/>
<path opacity="0.8" d="M158.683 529.931H164.836V516.093H158.683V529.931Z" fill="#8A9DAE"/>
<path opacity="0.8" d="M147.178 529.931H153.331V516.093H147.178V529.931Z" fill="#8A9DAE"/>
<path opacity="0.8" d="M135.93 529.931H142.083V516.093H135.93V529.931Z" fill="#8A9DAE"/>
<path opacity="0.8" d="M125.263 529.931H131.416V516.093H125.263V529.931Z" fill="#8A9DAE"/>
<path opacity="0.8" d="M324.87 553.968H331.022V540.129H324.87V553.968Z" fill="#8A9DAE"/>
<path opacity="0.8" d="M313.367 553.968H319.52V540.129H313.367V553.968Z" fill="#8A9DAE"/>
<path opacity="0.8" d="M302.116 553.968H308.269V540.129H302.116V553.968Z" fill="#8A9DAE"/>
<path opacity="0.8" d="M291.452 553.968H297.605V540.129H291.452V553.968Z" fill="#8A9DAE"/>
<path opacity="0.8" d="M280.583 553.968H286.736V540.129H280.583V553.968Z" fill="#8A9DAE"/>
<path opacity="0.8" d="M269.586 553.968H275.739V540.129H269.586V553.968Z" fill="#8A9DAE"/>
<path opacity="0.8" d="M258.08 553.968H264.233V540.129H258.08V553.968Z" fill="#8A9DAE"/>
<path opacity="0.8" d="M246.829 553.968H252.982V540.129H246.829V553.968Z" fill="#8A9DAE"/>
<path opacity="0.8" d="M236.169 553.968H242.322V540.129H236.169V553.968Z" fill="#8A9DAE"/>
<path opacity="0.8" d="M225.296 553.968H231.449V540.129H225.296V553.968Z" fill="#8A9DAE"/>
<path opacity="0.8" d="M213.97 553.968H220.123V540.129H213.97V553.968Z" fill="#8A9DAE"/>
<path opacity="0.8" d="M202.464 553.968H208.617V540.129H202.464V553.968Z" fill="#8A9DAE"/>
<path opacity="0.8" d="M191.213 553.968H197.366V540.129H191.213V553.968Z" fill="#8A9DAE"/>
<path opacity="0.8" d="M180.546 553.968H186.698V540.129H180.546V553.968Z" fill="#8A9DAE"/>
<path opacity="0.8" d="M169.68 553.968H175.833V540.129H169.68V553.968Z" fill="#8A9DAE"/>
<path opacity="0.8" d="M158.683 553.968H164.836V540.129H158.683V553.968Z" fill="#8A9DAE"/>
<path opacity="0.8" d="M147.178 553.968H153.331V540.129H147.178V553.968Z" fill="#8A9DAE"/>
<path opacity="0.8" d="M135.93 553.968H142.083V540.129H135.93V553.968Z" fill="#8A9DAE"/>
<path opacity="0.8" d="M125.263 553.968H131.416V540.129H125.263V553.968Z" fill="#8A9DAE"/>
</g>
<path d="M231.553 706.233H374.168V583.489H231.553V706.233Z" fill="#8A9DAE"/>
<path d="M339.693 706.227H482.307V644.852H339.693V706.227Z" fill="#8A9DAE"/>
<path d="M220.119 602.608V706.233H152.751C152.695 706.078 152.631 705.899 152.552 705.69C152.448 705.391 152.32 705.039 152.178 704.64L152.003 704.21C151.808 703.661 151.591 703.016 151.348 702.33C151.052 701.471 150.72 700.486 150.353 699.394C148.988 695.312 147.177 689.655 145.116 682.626C144.438 680.318 143.739 677.862 143.018 675.256C142.73 674.218 142.442 673.167 142.15 672.087C141.866 671.049 141.582 669.981 141.297 668.895L141.268 668.787C141.073 668.041 140.871 667.289 140.673 666.514C140.475 665.738 140.261 664.932 140.052 664.127C138.99 659.949 137.905 655.545 136.824 650.885C136.794 650.766 136.768 650.634 136.738 650.515C136.03 647.464 135.327 644.317 134.628 641.074C134.254 639.284 133.88 637.494 133.484 635.644L133.416 635.298C133.248 634.48 133.084 633.663 132.915 632.839C132.777 632.141 132.638 631.449 132.504 630.751C132.22 629.307 131.936 627.849 131.655 626.377C131.281 624.491 130.937 622.569 130.585 620.63C130.111 617.992 129.647 615.311 129.194 612.586L128.79 610.127C128.393 607.663 128 605.168 127.623 602.644L220.119 602.608Z" fill="#8A9DAE"/>
<path d="M338.069 620.594H364.641V597.858H338.069V620.594Z" fill="#D5E7F7"/>
<path d="M303.964 620.594H330.536V597.858H303.964V620.594Z" fill="#D5E7F7"/>
<path d="M270.506 620.594H297.078V597.858H270.506V620.594Z" fill="#D5E7F7"/>
<path d="M237.688 620.594H264.26V597.858H237.688V620.594Z" fill="#D5E7F7"/>
<path d="M219.345 707.289H233.035V583.489H219.345V707.289Z" fill="#617585"/>
<path d="M439.274 374.068H440.014V364.46H439.274V374.068Z" fill="#DCEAF9"/>
<path d="M412.638 374.068H413.378V364.46H412.638V374.068Z" fill="#DCEAF9"/>
<path d="M122.749 559.201C123.083 563.701 123.465 568.139 123.894 572.515C124.355 577.245 124.866 581.895 125.427 586.466C125.926 590.612 126.467 594.684 127.051 598.682C127.122 599.183 127.193 599.69 127.271 600.192C127.387 601.009 127.507 601.821 127.645 602.632C128.02 605.156 128.416 607.651 128.812 610.115L129.216 612.574C129.67 615.303 130.134 617.984 130.608 620.618C130.959 622.558 131.315 624.479 131.678 626.365C131.959 627.841 132.242 629.299 132.527 630.739C132.661 631.437 132.8 632.129 132.938 632.827C133.106 633.651 133.271 634.468 133.439 635.286L133.507 635.632C133.881 637.47 134.255 639.278 134.651 641.063C135.349 644.309 136.053 647.456 136.761 650.503C136.791 650.622 136.817 650.754 136.847 650.873C137.928 655.534 139.013 659.955 140.075 664.115C140.284 664.92 140.49 665.72 140.696 666.502C140.901 667.283 141.096 668.029 141.29 668.775L141.32 668.883V559.201H122.749Z" fill="#D5E7F7"/>
<path d="M141.305 600.168V668.865L141.275 668.757C141.081 668.011 140.879 667.26 140.681 666.484C140.482 665.708 140.269 664.902 140.06 664.097C138.997 659.92 137.913 655.516 136.832 650.855C136.802 650.736 136.776 650.604 136.746 650.485C136.038 647.434 135.334 644.287 134.636 641.045C134.262 639.254 133.888 637.464 133.492 635.614L133.424 635.268C133.256 634.451 133.091 633.633 132.923 632.81C132.785 632.111 132.646 631.419 132.512 630.721C132.227 629.277 131.944 627.819 131.663 626.347C131.288 624.461 130.944 622.54 130.593 620.6C130.119 617.963 129.655 615.281 129.201 612.556L128.797 610.098C128.401 607.633 128.008 605.139 127.63 602.614C127.507 601.803 127.387 600.991 127.256 600.174L141.305 600.168Z" fill="#D5E7F7"/>
<path d="M141.305 586.443V620.595H130.592C130.119 617.957 129.655 615.276 129.201 612.551L128.797 610.092C128.4 607.627 128.008 605.133 127.63 602.609C127.507 601.797 127.387 600.986 127.256 600.168C127.177 599.667 127.106 599.16 127.035 598.658C126.464 594.68 125.923 590.608 125.412 586.443H141.305Z" fill="#8A9DAE"/>
<path d="M134.636 630.715V641.039C134.262 639.248 133.888 637.458 133.491 635.608L133.424 635.262C133.256 634.445 133.091 633.627 132.923 632.804C132.785 632.105 132.646 631.413 132.511 630.715H134.636Z" fill="#8A9DAE"/>
<path d="M129.609 607.705H133.835V596.038H129.609V607.705Z" fill="#617585"/>
<path d="M455.312 705.23H553.232V600.168H455.312V705.23Z" fill="#D5E7F7"/>
<path d="M455.312 620.594H553.232V586.449H455.312V620.594Z" fill="#8A9DAE"/>
<path d="M541.536 642.023H546.567V630.715H541.536V642.023Z" fill="#8A9DAE"/>
<path d="M532.129 642.023H537.16V630.715H532.129V642.023Z" fill="#8A9DAE"/>
<path d="M522.935 642.023H527.966V630.715H522.935V642.023Z" fill="#8A9DAE"/>
<path d="M514.224 642.023H519.251V630.715H514.224V642.023Z" fill="#8A9DAE"/>
<path d="M505.337 642.023H510.368V630.715H505.337V642.023Z" fill="#8A9DAE"/>
<path d="M496.348 642.023H501.379V630.715H496.348V642.023Z" fill="#8A9DAE"/>
<path d="M486.945 642.023H491.976V630.715H486.945V642.023Z" fill="#8A9DAE"/>
<path d="M477.751 642.023H482.782V630.715H477.751V642.023Z" fill="#8A9DAE"/>
<path d="M469.032 642.023H474.063V630.715H469.032V642.023Z" fill="#8A9DAE"/>
<path d="M460.152 642.023H465.179V630.715H460.152V642.023Z" fill="#8A9DAE"/>
<path d="M541.536 661.978H546.567V650.67H541.536V661.978Z" fill="#8A9DAE"/>
<path d="M532.129 661.978H537.16V650.67H532.129V661.978Z" fill="#8A9DAE"/>
<path d="M522.935 661.978H527.966V650.67H522.935V661.978Z" fill="#8A9DAE"/>
<path d="M514.224 661.978H519.251V650.67H514.224V661.978Z" fill="#8A9DAE"/>
<path d="M505.337 661.978H510.368V650.67H505.337V661.978Z" fill="#8A9DAE"/>
<path d="M496.348 661.978H501.379V650.67H496.348V661.978Z" fill="#8A9DAE"/>
<path d="M486.945 661.978H491.976V650.67H486.945V661.978Z" fill="#8A9DAE"/>
<path d="M477.751 661.978H482.782V650.67H477.751V661.978Z" fill="#8A9DAE"/>
<path d="M469.032 661.978H474.063V650.67H469.032V661.978Z" fill="#8A9DAE"/>
<path d="M460.152 661.978H465.179V650.67H460.152V661.978Z" fill="#8A9DAE"/>
<path d="M541.536 681.623H546.567V670.315H541.536V681.623Z" fill="#8A9DAE"/>
<path d="M532.129 681.623H537.16V670.315H532.129V681.623Z" fill="#8A9DAE"/>
<path d="M522.935 681.623H527.966V670.315H522.935V681.623Z" fill="#8A9DAE"/>
<path d="M514.224 681.623H519.251V670.315H514.224V681.623Z" fill="#8A9DAE"/>
<path d="M505.337 681.623H510.368V670.315H505.337V681.623Z" fill="#8A9DAE"/>
<path d="M496.348 681.623H501.379V670.315H496.348V681.623Z" fill="#8A9DAE"/>
<path d="M486.945 681.623H491.976V670.315H486.945V681.623Z" fill="#8A9DAE"/>
<path d="M477.751 681.623H482.782V670.315H477.751V681.623Z" fill="#8A9DAE"/>
<path d="M469.032 681.623H474.063V670.315H469.032V681.623Z" fill="#8A9DAE"/>
<path d="M460.152 681.623H465.179V670.315H460.152V681.623Z" fill="#8A9DAE"/>
<path d="M541.537 607.705H545.763V596.038H541.537V607.705Z" fill="#617585"/>
<path d="M499.584 607.705H503.811V596.038H499.584V607.705Z" fill="#617585"/>
<path d="M466.204 607.705H470.431V596.038H466.204V607.705Z" fill="#617585"/>
<path d="M559.386 705.23H657.306V600.168H559.386V705.23Z" fill="#D5E7F7"/>
<path d="M559.386 620.594H657.306V586.449H559.386V620.594Z" fill="#8A9DAE"/>
<path d="M645.609 642.023H650.64V630.715H645.609V642.023Z" fill="#8A9DAE"/>
<path d="M636.203 642.023H641.233V630.715H636.203V642.023Z" fill="#8A9DAE"/>
<path d="M627.012 642.023H632.039V630.715H627.012V642.023Z" fill="#8A9DAE"/>
<path d="M618.293 642.023H623.32V630.715H618.293V642.023Z" fill="#8A9DAE"/>
<path d="M609.406 642.023H614.437V630.715H609.406V642.023Z" fill="#8A9DAE"/>
<path d="M600.422 642.023H605.453V630.715H600.422V642.023Z" fill="#8A9DAE"/>
<path d="M591.019 642.023H596.046V630.715H591.019V642.023Z" fill="#8A9DAE"/>
<path d="M581.824 642.023H586.852V630.715H581.824V642.023Z" fill="#8A9DAE"/>
<path d="M573.106 642.023H578.136V630.715H573.106V642.023Z" fill="#8A9DAE"/>
<path d="M564.222 642.023H569.253V630.715H564.222V642.023Z" fill="#8A9DAE"/>
<path d="M645.609 661.978H650.64V650.67H645.609V661.978Z" fill="#8A9DAE"/>
<path d="M636.203 661.978H641.233V650.67H636.203V661.978Z" fill="#8A9DAE"/>
<path d="M627.012 661.978H632.039V650.67H627.012V661.978Z" fill="#8A9DAE"/>
<path d="M618.293 661.978H623.32V650.67H618.293V661.978Z" fill="#8A9DAE"/>
<path d="M609.406 661.978H614.437V650.67H609.406V661.978Z" fill="#8A9DAE"/>
<path d="M600.422 661.978H605.453V650.67H600.422V661.978Z" fill="#8A9DAE"/>
<path d="M591.018 661.978H596.045V650.67H591.018V661.978Z" fill="#8A9DAE"/>
<path d="M581.824 661.978H586.851V650.67H581.824V661.978Z" fill="#8A9DAE"/>
<path d="M573.106 661.978H578.136V650.67H573.106V661.978Z" fill="#8A9DAE"/>
<path d="M564.222 661.978H569.253V650.67H564.222V661.978Z" fill="#8A9DAE"/>
<path d="M645.609 681.623H650.64V670.315H645.609V681.623Z" fill="#8A9DAE"/>
<path d="M636.203 681.623H641.233V670.315H636.203V681.623Z" fill="#8A9DAE"/>
<path d="M627.012 681.623H632.039V670.315H627.012V681.623Z" fill="#8A9DAE"/>
<path d="M618.293 681.623H623.32V670.315H618.293V681.623Z" fill="#8A9DAE"/>
<path d="M609.406 681.623H614.437V670.315H609.406V681.623Z" fill="#8A9DAE"/>
<path d="M600.422 681.623H605.453V670.315H600.422V681.623Z" fill="#8A9DAE"/>
<path d="M591.019 681.623H596.046V670.315H591.019V681.623Z" fill="#8A9DAE"/>
<path d="M581.824 681.623H586.852V670.315H581.824V681.623Z" fill="#8A9DAE"/>
<path d="M573.106 681.623H578.136V670.315H573.106V681.623Z" fill="#8A9DAE"/>
<path d="M564.222 681.623H569.253V670.315H564.222V681.623Z" fill="#8A9DAE"/>
<path d="M645.609 607.705H649.836V596.038H645.609V607.705Z" fill="#617585"/>
<path d="M603.65 607.705H607.876V596.038H603.65V607.705Z" fill="#617585"/>
<path d="M570.277 607.705H574.504V596.038H570.277V607.705Z" fill="#617585"/>
<path d="M764.341 705.23H862.261V600.168H764.341V705.23Z" fill="#D5E7F7"/>
<path d="M764.341 620.594H862.261V586.449H764.341V620.594Z" fill="#8A9DAE"/>
<path d="M850.565 642.023H855.592V630.715H850.565V642.023Z" fill="#8A9DAE"/>
<path d="M841.162 642.023H846.192V630.715H841.162V642.023Z" fill="#8A9DAE"/>
<path d="M831.968 642.023H836.995V630.715H831.968V642.023Z" fill="#8A9DAE"/>
<path d="M823.249 642.023H828.28V630.715H823.249V642.023Z" fill="#8A9DAE"/>
<path d="M814.362 642.023H819.393V630.715H814.362V642.023Z" fill="#8A9DAE"/>
<path d="M805.377 642.023H810.408V630.715H805.377V642.023Z" fill="#8A9DAE"/>
<path d="M795.974 642.023H801.005V630.715H795.974V642.023Z" fill="#8A9DAE"/>
<path d="M786.78 642.023H791.811V630.715H786.78V642.023Z" fill="#8A9DAE"/>
<path d="M778.062 642.023H783.092V630.715H778.062V642.023Z" fill="#8A9DAE"/>
<path d="M769.178 642.023H774.208V630.715H769.178V642.023Z" fill="#8A9DAE"/>
<path d="M850.565 661.978H855.592V650.67H850.565V661.978Z" fill="#8A9DAE"/>
<path d="M841.162 661.978H846.192V650.67H841.162V661.978Z" fill="#8A9DAE"/>
<path d="M831.968 661.978H836.995V650.67H831.968V661.978Z" fill="#8A9DAE"/>
<path d="M823.249 661.978H828.28V650.67H823.249V661.978Z" fill="#8A9DAE"/>
<path d="M814.362 661.978H819.393V650.67H814.362V661.978Z" fill="#8A9DAE"/>
<path d="M805.377 661.978H810.408V650.67H805.377V661.978Z" fill="#8A9DAE"/>
<path d="M795.974 661.978H801.005V650.67H795.974V661.978Z" fill="#8A9DAE"/>
<path d="M786.78 661.978H791.811V650.67H786.78V661.978Z" fill="#8A9DAE"/>
<path d="M778.062 661.978H783.092V650.67H778.062V661.978Z" fill="#8A9DAE"/>
<path d="M769.178 661.978H774.208V650.67H769.178V661.978Z" fill="#8A9DAE"/>
<path d="M850.565 681.623H855.592V670.315H850.565V681.623Z" fill="#8A9DAE"/>
<path d="M841.162 681.623H846.192V670.315H841.162V681.623Z" fill="#8A9DAE"/>
<path d="M831.968 681.623H836.995V670.315H831.968V681.623Z" fill="#8A9DAE"/>
<path d="M823.249 681.623H828.28V670.315H823.249V681.623Z" fill="#8A9DAE"/>
<path d="M814.362 681.623H819.393V670.315H814.362V681.623Z" fill="#8A9DAE"/>
<path d="M805.377 681.623H810.408V670.315H805.377V681.623Z" fill="#8A9DAE"/>
<path d="M795.974 681.623H801.005V670.315H795.974V681.623Z" fill="#8A9DAE"/>
<path d="M786.78 681.623H791.811V670.315H786.78V681.623Z" fill="#8A9DAE"/>
<path d="M778.062 681.623H783.092V670.315H778.062V681.623Z" fill="#8A9DAE"/>
<path d="M769.178 681.623H774.208V670.315H769.178V681.623Z" fill="#8A9DAE"/>
<path d="M850.565 607.705H854.792V596.038H850.565V607.705Z" fill="#617585"/>
<path d="M808.609 607.705H812.836V596.038H808.609V607.705Z" fill="#617585"/>
<path d="M775.237 607.705H779.464V596.038H775.237V607.705Z" fill="#617585"/>
</g>
</g>
<ellipse cx="372.037" cy="615.805" rx="328.872" ry="289.14" fill="#F48C06" fill-opacity="0.1"/>
<ellipse cx="-16.9797" cy="544.311" rx="68.43" ry="60.181" fill="white" fill-opacity="0.22"/>
</g>
<defs>
<linearGradient id="paint0_linear_643_614" x1="23.3606" y1="24.1107" x2="482.706" y2="885.19" gradientUnits="userSpaceOnUse">
<stop stop-color="#474ED3"/>
<stop offset="1" stop-color="#785BEB"/>
</linearGradient>
<clipPath id="clip0_643_614">
<rect width="740.99" height="510.036" fill="white" transform="translate(121.271 197.253)"/>
</clipPath>
</defs>
</svg>
