<svg width="192" height="48" viewBox="0 0 192 48" fill="none" xmlns="http://www.w3.org/2000/svg">
<path d="M192 43.1884C192 45.8467 189.529 48 186.474 48H5.62146C2.56712 48 0.0878906 45.8467 0.0878906 43.1884V4.81784C0.0878906 2.1608 2.56712 0 5.62146 0H186.472C189.53 0 191.999 2.1608 191.999 4.81784L192 43.1884Z" fill="black"/>
<path d="M47.1266 23.8953C47.0875 20.1483 50.6809 18.3254 50.8452 18.2406C48.8101 15.6794 45.6559 15.3295 44.5474 15.3016C41.8982 15.0609 39.3285 16.6699 37.9789 16.6699C36.6025 16.6699 34.5243 15.3248 32.2845 15.3644C29.4023 15.4027 26.706 16.8431 25.2271 19.0799C22.1752 23.6407 24.4514 30.3429 27.3753 34.0295C28.838 35.8349 30.5471 37.8508 32.7842 37.7799C34.9728 37.702 35.7903 36.5755 38.4315 36.5755C41.0484 36.5755 41.816 37.7799 44.0976 37.7346C46.4464 37.702 47.9253 35.921 49.3367 34.0992C51.027 32.0298 51.7058 29.9918 51.7327 29.8872C51.6775 29.8709 47.171 28.3863 47.1266 23.8953Z" fill="white"/>
<path d="M42.8167 12.8764C43.9939 11.6058 44.7993 9.87701 44.5757 8.12269C42.872 8.18779 40.7413 9.13994 39.5143 10.3827C38.4288 11.4779 37.4591 13.2729 37.7096 14.9609C39.6234 15.0842 41.5884 14.1274 42.8167 12.8764Z" fill="white"/>
<path d="M78.7991 36.605H75.7405L74.065 32.3178H68.2413L66.6453 36.605H63.6675L69.4373 22.0093H73.001L78.7991 36.605ZM73.5599 30.5191L72.0448 26.7079C71.8845 26.3185 71.5841 25.4016 71.141 23.9583H71.0872C70.9107 24.5791 70.6265 25.4959 70.236 26.7079L68.7477 30.5191H73.5599Z" fill="white"/>
<path d="M93.637 31.2133C93.637 33.0032 93.043 34.4181 91.8551 35.4567C90.7911 36.3813 89.4699 36.843 87.8927 36.843C86.1903 36.843 84.9674 36.3451 84.2226 35.3492H84.1688V40.8933H81.2973V29.5452C81.2973 28.4199 81.261 27.265 81.1909 26.0805H83.7162L83.8765 27.7487H83.9304C84.888 26.4918 86.3412 25.8644 88.2914 25.8644C89.816 25.8644 91.0888 26.3547 92.107 27.3363C93.1279 28.319 93.637 29.611 93.637 31.2133ZM90.7117 31.2989C90.7117 30.2745 90.4288 29.43 89.8605 28.7654C89.2396 28.0722 88.4059 27.7256 87.3607 27.7256C86.6523 27.7256 86.0085 27.9187 85.4334 28.2992C84.857 28.6831 84.4799 29.1843 84.3034 29.8051C84.2145 30.0946 84.1701 30.3315 84.1701 30.518V32.2728C84.1701 33.0383 84.4583 33.6843 85.0348 34.2119C85.6112 34.7394 86.36 35.0026 87.2813 35.0026C88.3628 35.0026 89.2046 34.6626 89.8066 33.9848C90.41 33.3059 90.7117 32.411 90.7117 31.2989Z" fill="white"/>
<path d="M108.503 31.2133C108.503 33.0032 107.909 34.4181 106.72 35.4567C105.657 36.3813 104.336 36.843 102.759 36.843C101.056 36.843 99.8333 36.3451 99.0898 35.3492H99.0359V40.8933H96.1645V29.5452C96.1645 28.4199 96.1281 27.265 96.0581 26.0805H98.5834L98.7437 27.7487H98.7976C99.7538 26.4918 101.207 25.8644 103.159 25.8644C104.682 25.8644 105.955 26.3547 106.976 27.3363C107.992 28.319 108.503 29.611 108.503 31.2133ZM105.577 31.2989C105.577 30.2745 105.293 29.43 104.725 28.7654C104.104 28.0722 103.273 27.7256 102.227 27.7256C101.517 27.7256 100.874 27.9187 100.298 28.2992C99.7215 28.6831 99.3457 29.1843 99.1693 29.8051C99.0817 30.0946 99.0359 30.3315 99.0359 30.518V32.2728C99.0359 33.0383 99.3242 33.6843 99.8979 34.2119C100.474 34.7383 101.223 35.0026 102.147 35.0026C103.229 35.0026 104.07 34.6626 104.672 33.9848C105.276 33.3059 105.577 32.411 105.577 31.2989Z" fill="white"/>
<path d="M125.123 32.512C125.123 33.7535 124.594 34.7636 123.531 35.5434C122.363 36.3956 120.738 36.8211 118.649 36.8211C116.72 36.8211 115.174 36.5184 114.003 35.9119L114.669 33.963C115.929 34.5837 117.313 34.8952 118.82 34.8952C119.901 34.8952 120.743 34.6956 121.348 34.2986C121.95 33.9016 122.25 33.3685 122.25 32.7039C122.25 32.1117 122.002 31.6126 121.505 31.2079C121.011 30.8032 120.185 30.427 119.032 30.0794C115.894 29.1263 114.327 27.7301 114.327 25.8941C114.327 24.6943 114.876 23.7105 115.977 22.9449C117.073 22.1783 118.535 21.7955 120.364 21.7955C121.996 21.7955 123.35 22.0269 124.432 22.4887L123.714 24.3948C122.704 23.9474 121.562 23.7236 120.284 23.7236C119.274 23.7236 118.484 23.9265 117.919 24.3301C117.441 24.691 117.201 25.1308 117.201 25.6517C117.201 26.2286 117.474 26.7057 118.024 27.0808C118.502 27.4274 119.371 27.8025 120.631 28.2072C122.173 28.7128 123.306 29.3039 124.035 29.9817C124.761 30.6573 125.123 31.5029 125.123 32.512Z" fill="white"/>
<path d="M134.616 27.8351H131.451V32.9449C131.451 34.2446 132.009 34.8938 133.126 34.8938C133.64 34.8938 134.065 34.8576 134.402 34.7853L134.481 36.5609C133.916 36.7331 133.171 36.8197 132.248 36.8197C131.114 36.8197 130.228 36.5379 129.588 35.9752C128.951 35.4115 128.631 34.4661 128.631 33.1379V27.8329H126.745V26.0781H128.631V24.1511L131.451 23.4579V26.0781H134.616V27.8351Z" fill="white"/>
<path d="M148.896 31.2563C148.896 32.874 148.328 34.2022 147.194 35.2408C146.005 36.3101 144.426 36.8432 142.458 36.8432C140.562 36.8432 139.052 36.331 137.926 35.3066C136.8 34.2822 136.237 32.9891 136.237 31.4307C136.237 29.7998 136.816 28.4639 137.979 27.4253C139.138 26.3856 140.703 25.8657 142.671 25.8657C144.567 25.8657 146.093 26.3779 147.245 27.4034C148.347 28.3981 148.896 29.6824 148.896 31.2563ZM145.917 31.3319C145.917 30.3613 145.662 29.5289 145.147 28.8346C144.545 27.9945 143.684 27.5755 142.569 27.5755C141.415 27.5755 140.538 27.9956 139.936 28.8346C139.42 29.53 139.165 30.3756 139.165 31.3758C139.165 32.3464 139.42 33.1789 139.936 33.872C140.557 34.7122 141.424 35.1311 142.543 35.1311C143.639 35.1311 144.5 34.7034 145.121 33.8501C145.65 33.1427 145.917 32.3015 145.917 31.3319Z" fill="white"/>
<path d="M158.23 28.1369C157.945 28.0941 157.642 28.0722 157.325 28.0722C156.314 28.0722 155.533 28.3826 154.984 29.0045C154.506 29.5528 154.266 30.246 154.266 31.0828V36.605H151.396L151.423 29.3949C151.423 28.1819 151.386 27.0774 151.315 26.0816H153.816L153.921 28.0952H154.001C154.304 27.4032 154.782 26.846 155.436 26.4282C156.076 26.052 156.767 25.8644 157.512 25.8644C157.777 25.8644 158.017 25.8798 158.23 25.9072V28.1369Z" fill="white"/>
<path d="M171.072 30.845C171.072 31.2639 171.039 31.6171 170.967 31.9055H162.353C162.386 32.9453 162.803 33.7404 163.603 34.2888C164.329 34.7791 165.267 35.0247 166.42 35.0247C167.696 35.0247 168.859 34.8591 169.906 34.5268L170.356 36.15C169.133 36.5843 167.689 36.8004 166.023 36.8004C164.019 36.8004 162.446 36.32 161.301 35.3603C160.159 34.4007 159.586 33.112 159.586 31.4954C159.586 29.9083 160.118 28.5867 161.184 27.5328C162.299 26.4075 163.806 25.8448 165.702 25.8448C167.565 25.8448 168.975 26.4075 169.933 27.5328C170.691 28.4266 171.072 29.5322 171.072 30.845ZM168.334 30.2385C168.353 29.5453 168.166 28.9465 167.776 28.4409C167.28 27.7905 166.516 27.4659 165.488 27.4659C164.549 27.4659 163.786 27.7828 163.203 28.4189C162.725 28.9246 162.44 29.5311 162.353 30.2374H168.334V30.2385Z" fill="white"/>
<path d="M72.6114 12.5312C72.6114 13.8995 72.136 14.9296 71.1865 15.6213C70.307 16.2596 69.0571 16.5793 67.4382 16.5793C66.6355 16.5793 65.9486 16.549 65.3735 16.4886V9.01208C66.1237 8.90744 66.9318 8.85397 67.8046 8.85397C69.3467 8.85397 70.509 9.14345 71.2929 9.72241C72.171 10.3769 72.6114 11.3128 72.6114 12.5312ZM71.1232 12.5649C71.1232 11.6779 70.8511 10.9977 70.307 10.5234C69.7629 10.0503 68.9682 9.81309 67.9217 9.81309C67.4773 9.81309 67.0988 9.83866 66.785 9.89214V15.576C66.9588 15.5992 67.2766 15.6097 67.7386 15.6097C68.8187 15.6097 69.6524 15.3504 70.2396 14.8319C70.8269 14.3134 71.1232 13.5577 71.1232 12.5649Z" fill="white"/>
<path d="M80.502 13.7265C80.502 14.5694 80.2232 15.2599 79.6656 15.8017C79.0811 16.3586 78.3067 16.6364 77.3396 16.6364C76.4076 16.6364 75.6655 16.3702 75.112 15.8354C74.5598 15.3018 74.2837 14.6287 74.2837 13.8172C74.2837 12.9685 74.5679 12.2721 75.1389 11.7315C75.71 11.1909 76.4777 10.9201 77.4447 10.9201C78.3767 10.9201 79.1255 11.1863 79.6926 11.7199C80.2313 12.2384 80.502 12.9081 80.502 13.7265ZM79.038 13.766C79.038 13.2603 78.9114 12.8267 78.6595 12.4651C78.3632 12.028 77.9417 11.8094 77.3935 11.8094C76.8265 11.8094 76.3955 12.028 76.0992 12.4651C75.846 12.8267 75.7208 13.2673 75.7208 13.7881C75.7208 14.2939 75.8474 14.7275 76.0992 15.0891C76.4049 15.5262 76.8305 15.7447 77.3801 15.7447C77.9188 15.7447 78.3417 15.5227 78.6461 15.0774C78.9074 14.7089 79.038 14.2718 79.038 13.766Z" fill="white"/>
<path d="M91.0826 11.031L89.0961 16.5114H87.8031L86.9802 14.1316C86.7714 13.5376 86.6017 12.947 86.4697 12.361H86.4441C86.3216 12.9632 86.1519 13.5527 85.9337 14.1316L85.0596 16.5114H83.7518L81.8838 11.031H83.3343L84.0522 13.6364C84.2259 14.2525 84.3687 14.8396 84.4832 15.3953H84.5088C84.6138 14.9373 84.7875 14.3537 85.0327 13.648L85.9337 11.0322H87.0839L87.9472 13.5922C88.156 14.2165 88.3257 14.8175 88.4563 15.3965H88.4954C88.591 14.8327 88.7351 14.2316 88.9264 13.5922L89.6967 11.0322H91.0826V11.031Z" fill="white"/>
<path d="M98.4005 16.5117H96.9891V13.3727C96.9891 12.4055 96.5635 11.9218 95.7096 11.9218C95.2907 11.9218 94.9527 12.0544 94.69 12.3206C94.4301 12.5868 94.2981 12.9007 94.2981 13.26V16.5105H92.8866V12.5973C92.8866 12.116 92.8691 11.594 92.8354 11.029H94.0759L94.1419 11.8858H94.1809C94.3452 11.6196 94.5904 11.3999 94.9123 11.2243C95.2948 11.0197 95.723 10.9162 96.1917 10.9162C96.7843 10.9162 97.2773 11.0813 97.6692 11.4126C98.1568 11.8184 98.4005 12.4241 98.4005 13.2286V16.5117Z" fill="white"/>
<path d="M102.293 16.5116H100.883V8.51663H102.293V16.5116Z" fill="white"/>
<path d="M110.602 13.7265C110.602 14.5694 110.323 15.2599 109.765 15.8017C109.181 16.3586 108.405 16.6364 107.439 16.6364C106.506 16.6364 105.764 16.3702 105.212 15.8354C104.659 15.3018 104.383 14.6287 104.383 13.8172C104.383 12.9685 104.667 12.2721 105.239 11.7315C105.81 11.1909 106.577 10.9201 107.543 10.9201C108.476 10.9201 109.224 11.1863 109.792 11.7199C110.331 12.2384 110.602 12.9081 110.602 13.7265ZM109.136 13.766C109.136 13.2603 109.01 12.8267 108.758 12.4651C108.463 12.028 108.04 11.8094 107.493 11.8094C106.925 11.8094 106.494 12.028 106.199 12.4651C105.946 12.8267 105.82 13.2673 105.82 13.7881C105.82 14.2939 105.947 14.7275 106.199 15.0891C106.505 15.5262 106.93 15.7447 107.48 15.7447C108.018 15.7447 108.44 15.5227 108.744 15.0774C109.007 14.7089 109.136 14.2718 109.136 13.766Z" fill="white"/>
<path d="M117.433 16.512H116.166L116.061 15.8808H116.022C115.588 16.3842 114.97 16.6364 114.167 16.6364C113.568 16.6364 113.083 16.4702 112.718 16.14C112.387 15.8401 112.221 15.4669 112.221 15.0239C112.221 14.3543 112.544 13.8439 113.195 13.4905C113.844 13.1371 114.757 12.9639 115.933 12.972V12.8697C115.933 12.1477 115.494 11.7873 114.615 11.7873C113.988 11.7873 113.436 11.9234 112.959 12.1931L112.672 11.3932C113.262 11.0782 113.991 10.9201 114.85 10.9201C116.509 10.9201 117.342 11.6757 117.342 13.1871V15.2053C117.342 15.7529 117.373 16.1888 117.433 16.512ZM115.968 14.6287V13.7835C114.411 13.7602 113.633 14.1288 113.633 14.8879C113.633 15.1739 113.722 15.3878 113.903 15.5308C114.085 15.6738 114.317 15.7447 114.593 15.7447C114.903 15.7447 115.192 15.6599 115.456 15.4913C115.722 15.3216 115.885 15.1065 115.945 14.8426C115.96 14.7833 115.968 14.7112 115.968 14.6287Z" fill="white"/>
<path d="M125.454 16.5116H124.202L124.136 15.6316H124.097C123.697 16.3012 123.015 16.636 122.058 16.636C121.293 16.636 120.656 16.3768 120.15 15.8583C119.645 15.3398 119.394 14.6666 119.394 13.8401C119.394 12.953 119.667 12.2345 120.216 11.6858C120.748 11.1743 121.4 10.9185 122.176 10.9185C123.029 10.9185 123.625 11.1661 123.965 11.6626H123.992V8.51663H125.404V15.0352C125.404 15.5688 125.421 16.0606 125.454 16.5116ZM123.992 14.2004V13.2867C123.992 13.1286 123.978 13.0007 123.953 12.903C123.873 12.6101 123.702 12.3636 123.442 12.1648C123.179 11.966 122.863 11.866 122.498 11.866C121.971 11.866 121.559 12.0462 121.256 12.4078C120.956 12.7693 120.804 13.2309 120.804 13.7947C120.804 14.3365 120.948 14.7759 121.237 15.1142C121.543 15.4746 121.955 15.6548 122.471 15.6548C122.934 15.6548 123.305 15.5049 123.586 15.2037C123.858 14.9259 123.992 14.5911 123.992 14.2004Z" fill="white"/>
<path d="M137.526 13.7265C137.526 14.5694 137.247 15.2599 136.69 15.8017C136.105 16.3586 135.332 16.6364 134.364 16.6364C133.433 16.6364 132.691 16.3702 132.136 15.8354C131.584 15.3018 131.308 14.6287 131.308 13.8172C131.308 12.9685 131.592 12.2721 132.163 11.7315C132.734 11.1909 133.502 10.9201 134.47 10.9201C135.401 10.9201 136.151 11.1863 136.716 11.7199C137.255 12.2384 137.526 12.9081 137.526 13.7265ZM136.063 13.766C136.063 13.2603 135.937 12.8267 135.685 12.4651C135.387 12.028 134.967 11.8094 134.417 11.8094C133.852 11.8094 133.421 12.028 133.123 12.4651C132.87 12.8267 132.745 13.2673 132.745 13.7881C132.745 14.2939 132.871 14.7275 133.123 15.0891C133.429 15.5262 133.854 15.7447 134.404 15.7447C134.943 15.7447 135.367 15.5227 135.671 15.0774C135.931 14.7089 136.063 14.2718 136.063 13.766Z" fill="white"/>
<path d="M145.116 16.5117H143.705V13.3727C143.705 12.4055 143.28 11.9218 142.425 11.9218C142.006 11.9218 141.668 12.0544 141.406 12.3206C141.145 12.5868 141.014 12.9007 141.014 13.26V16.5105H139.602V12.5973C139.602 12.116 139.585 11.594 139.552 11.029H140.791L140.857 11.8858H140.896C141.062 11.6196 141.307 11.3999 141.627 11.2243C142.011 11.0197 142.438 10.9162 142.908 10.9162C143.499 10.9162 143.992 11.0813 144.384 11.4126C144.873 11.8184 145.116 12.4241 145.116 13.2286V16.5117Z" fill="white"/>
<path d="M154.614 11.9443H153.06V14.6066C153.06 15.2832 153.336 15.6215 153.883 15.6215C154.136 15.6215 154.346 15.6029 154.512 15.5645L154.548 16.4888C154.27 16.5795 153.903 16.6248 153.452 16.6248C152.894 16.6248 152.461 16.4783 152.147 16.1853C151.832 15.8924 151.676 15.3994 151.676 14.7077V11.9443H150.748V11.0317H151.676V10.0272L153.059 9.6668V11.0305H154.613V11.9443H154.614Z" fill="white"/>
<path d="M162.087 16.5116H160.674V13.3959C160.674 12.4136 160.248 11.9218 159.396 11.9218C158.741 11.9218 158.294 12.2066 158.049 12.7763C158.007 12.896 157.983 13.0425 157.983 13.2146V16.5105H156.573V8.51663H157.983V11.8195H158.01C158.454 11.2185 159.091 10.9185 159.917 10.9185C160.501 10.9185 160.985 11.0836 161.369 11.4149C161.847 11.8276 162.087 12.4415 162.087 13.253V16.5116Z" fill="white"/>
<path d="M169.794 13.512C169.794 13.7306 169.776 13.9142 169.742 14.0642H165.509C165.528 14.606 165.73 15.0187 166.122 15.3047C166.48 15.5604 166.942 15.6883 167.508 15.6883C168.134 15.6883 168.705 15.6023 169.219 15.4291L169.44 16.2754C168.838 16.501 168.13 16.6137 167.31 16.6137C166.326 16.6137 165.552 16.3638 164.992 15.8639C164.429 15.364 164.15 14.6932 164.15 13.8515C164.15 13.0249 164.41 12.3366 164.934 11.7879C165.481 11.202 166.22 10.909 167.153 10.909C168.066 10.909 168.76 11.202 169.229 11.7879C169.607 12.2529 169.794 12.8284 169.794 13.512ZM168.448 13.1969C168.458 12.8354 168.365 12.5238 168.174 12.2611C167.929 11.9228 167.556 11.753 167.051 11.753C166.59 11.753 166.215 11.9181 165.928 12.2494C165.693 12.5133 165.555 12.8284 165.509 13.1969H168.448Z" fill="white"/>
</svg>
