<svg width="83" height="48" viewBox="0 0 83 48" fill="none" xmlns="http://www.w3.org/2000/svg">
<path d="M6.75855 18.3495C6.57832 17.8063 6.07271 17.4424 5.49996 17.4424C4.9272 17.4424 4.42159 17.8073 4.24137 18.3505C3.5511 20.4342 2.99068 20.9952 0.909014 21.683C0.365875 21.8622 0.00098794 22.3679 1.99923e-06 22.9406C-0.000985458 23.5149 0.363904 24.021 0.908029 24.2018C2.99076 24.8896 3.55161 25.4506 4.24139 27.5353C4.4226 28.0775 4.92772 28.4424 5.49949 28.4424C6.07126 28.4424 6.57785 28.0775 6.75808 27.5343C7.44835 25.4506 8.00877 24.8896 10.093 24.2008C10.6361 24.0205 11.001 23.5139 11 22.9397C10.999 22.3669 10.6351 21.8612 10.093 21.683C8.00934 20.9951 7.44836 20.4332 6.75858 18.3494L6.75855 18.3495ZM5.49946 24.8763C5.00965 24.0334 4.40776 23.432 3.56487 22.9417C4.40871 22.4518 5.00915 21.8499 5.49946 21.007C5.98927 21.8499 6.59116 22.4513 7.43405 22.9417C6.59269 23.432 5.99079 24.0334 5.49946 24.8763ZM9.3962 23.7836C9.39719 23.7836 9.39719 23.7836 9.3962 23.7836H9.39818H9.3962Z" fill="#F48C06"/>
<path d="M78.7585 18.3497C78.5783 17.8065 78.0727 17.4426 77.5 17.4426C76.9272 17.4426 76.4216 17.8075 76.2414 18.3507C75.5511 20.4344 74.9907 20.9954 72.909 21.6832C72.3659 21.8625 72.001 22.3681 72 22.9409C71.999 23.5152 72.3639 24.0213 72.908 24.202C74.9908 24.8899 75.5516 25.4508 76.2414 27.5355C76.4226 28.0777 76.9277 28.4426 77.4995 28.4426C78.0713 28.4426 78.5779 28.0777 78.7581 27.5346C79.4483 25.4508 80.0088 24.8898 82.093 24.201C82.6361 24.0208 83.001 23.5142 83 22.9399C82.999 22.3671 82.6351 21.8615 82.093 21.6832C80.0093 20.9954 79.4484 20.4334 78.7586 18.3497L78.7585 18.3497ZM77.4995 24.8766C77.0097 24.0337 76.4078 23.4322 75.5649 22.9419C76.4087 22.4521 77.0091 21.8501 77.4995 21.0072C77.9893 21.8501 78.5912 22.4516 79.4341 22.9419C78.5927 23.4322 77.9908 24.0337 77.4995 24.8766ZM81.3962 23.7838C81.3972 23.7838 81.3972 23.7838 81.3962 23.7838H81.3982H81.3962Z" fill="#F48C06"/>
<path fill-rule="evenodd" clip-rule="evenodd" d="M27.2189 8.3302C23.1949 8.3302 19.9292 11.596 19.9292 15.6199C19.9292 19.644 23.195 22.9097 27.2189 22.9097C31.243 22.9097 34.5087 19.6439 34.5087 15.6199C34.5087 11.5959 31.2429 8.3302 27.2189 8.3302ZM27.2189 10.4122C30.0931 10.4122 32.4267 12.7453 32.4267 15.6199C32.4267 18.4941 30.0936 20.8277 27.2189 20.8277C24.3447 20.8277 22.0112 18.4946 22.0112 15.6199C22.0112 12.7457 24.3443 10.4122 27.2189 10.4122Z" fill="#2E526B"/>
<path fill-rule="evenodd" clip-rule="evenodd" d="M50.1298 27.0791H62.6273C63.202 27.0791 63.6688 26.6123 63.6688 26.0377C63.6688 25.463 63.202 24.9962 62.6273 24.9962H50.1298C49.5552 24.9962 49.0884 25.463 49.0884 26.0377C49.0884 26.6123 49.5552 27.0791 50.1298 27.0791Z" fill="#2E526B"/>
<path fill-rule="evenodd" clip-rule="evenodd" d="M45.9638 31.2458H58.4613C59.036 31.2458 59.5028 30.779 59.5028 30.2044C59.5028 29.6297 59.036 29.1629 58.4613 29.1629H45.9638C45.3892 29.1629 44.9224 29.6297 44.9224 30.2044C44.9224 30.779 45.3892 31.2458 45.9638 31.2458Z" fill="#2E526B"/>
<path fill-rule="evenodd" clip-rule="evenodd" d="M35.5505 47.907H18.886C16.0104 47.907 13.6787 45.5753 13.6787 42.6997V34.3639C13.6787 29.1878 17.8748 24.9908 23.0518 24.9908H31.3844C36.5615 24.9908 40.7576 29.1878 40.7576 34.3639V42.6997C40.7576 45.5753 38.4268 47.907 35.5503 47.907H35.5505ZM34.5091 45.8241H35.5505C37.2764 45.8241 38.6749 44.4256 38.6749 42.6997V34.3639C38.6749 30.3376 35.411 27.0737 31.3847 27.0737H23.0521C19.0257 27.0737 15.7619 30.3376 15.7619 34.3639V42.6997C15.7619 44.4256 17.1604 45.8241 18.8862 45.8241H19.9286V36.4491C19.9286 35.8744 20.3954 35.4076 20.9701 35.4076C21.5447 35.4076 22.0115 35.8744 22.0115 36.4491V45.8241H32.4261V36.4519C32.4261 35.8773 32.8929 35.4105 33.4676 35.4105C34.0422 35.4105 34.509 35.8773 34.509 36.4519L34.5091 45.8241Z" fill="#2E526B"/>
<path fill-rule="evenodd" clip-rule="evenodd" d="M40.7566 6.10352e-05H65.7516C66.0278 6.10352e-05 66.2923 0.109321 66.4881 0.305059L71.6954 5.51235C71.9934 5.81037 72.0817 6.2581 71.9204 6.64773C71.76 7.03641 71.3797 7.29027 70.9589 7.29027H66.7931V18.7463C66.7931 21.0468 64.9277 22.9121 62.6272 22.9121H43.881C41.5805 22.9121 39.7152 21.0468 39.7152 18.7463V7.29027H35.5493C35.1276 7.29027 34.7482 7.03595 34.5869 6.64773C34.4256 6.25812 34.5149 5.81037 34.8129 5.51235L40.0202 0.305059C40.215 0.109325 40.4795 6.10352e-05 40.7566 6.10352e-05ZM54.2956 3.55542V20.8293H62.6272C63.777 20.8293 64.7102 19.8971 64.7102 18.7464V7.29038H58.4614C58.1843 7.29038 57.9198 7.18112 57.7249 6.98539L54.2956 3.55542ZM52.2127 3.55542L48.7819 6.98473C48.5871 7.18047 48.3216 7.28973 48.0455 7.28973L41.7981 7.29019V18.7462C41.7981 19.897 42.7303 20.8291 43.8811 20.8291H52.2127L52.2127 3.55542ZM55.768 2.08298L58.8924 5.20735H68.4436L65.3192 2.08298H55.768ZM38.0632 5.20735H47.6144L50.7388 2.08298H41.1876L38.0632 5.20735Z" fill="#F48C06"/>
</svg>
