<svg width="73" height="69" viewBox="0 0 73 69" fill="none" xmlns="http://www.w3.org/2000/svg">
<g clip-path="url(#clip0_175_142)">
<path d="M45.3172 0H27.6836C20.6917 0.00178983 13.9594 2.65607 8.8393 7.42961C3.71922 12.2031 0.59066 18.7423 0.0821443 25.7333C-0.426371 32.7243 1.72283 39.6493 6.09799 45.1169C10.4731 50.5846 16.7501 54.19 23.6678 55.2086C24.244 58.8611 24.0042 62.5962 22.9655 66.1444C22.8426 66.5607 22.8439 67.0038 22.9693 67.4194C23.0946 67.8349 23.3384 68.2046 23.6707 68.4828C24.0031 68.7611 24.4093 68.9358 24.8395 68.9855C25.2697 69.0351 25.7049 68.9575 26.0916 68.7621C30.6965 66.4323 37.2182 62.1482 40.6989 55.4965H45.3253C52.6326 55.4443 59.6229 52.4973 64.7713 47.2983C69.9196 42.0993 72.8084 35.0701 72.8073 27.7442C72.8062 20.4183 69.9155 13.39 64.7656 8.19252C59.6157 2.99501 52.6246 0.0500435 45.3172 0ZM36.16 44.3945C35.4914 44.3942 34.8436 44.1615 34.3269 43.7361C33.8103 43.3107 33.4567 42.7188 33.3265 42.0614C33.1962 41.4039 33.2974 40.7216 33.6127 40.1305C33.9281 39.5394 34.4381 39.0763 35.0558 38.8199C35.6736 38.5635 36.3609 38.5298 37.0007 38.7244C37.6405 38.9191 38.1931 39.3301 38.5645 39.8875C38.9359 40.4448 39.1031 41.1141 39.0375 41.7811C38.972 42.4482 38.6778 43.0718 38.205 43.5458C37.9366 43.8152 37.6178 44.0288 37.2669 44.1745C36.916 44.3201 36.5398 44.3949 36.16 44.3945ZM39.3239 30.3396C39.3239 30.3396 39.0367 30.4464 39.0367 30.6099V32.8816C39.045 33.2655 38.9768 33.6472 38.836 34.0043C38.6952 34.3614 38.4846 34.6867 38.2167 34.9611C37.9489 35.2356 37.629 35.4536 37.276 35.6025C36.9229 35.7513 36.5437 35.828 36.1607 35.828C35.7777 35.828 35.3985 35.7513 35.0455 35.6025C34.6924 35.4536 34.3726 35.2356 34.1047 34.9611C33.8368 34.6867 33.6263 34.3614 33.4855 34.0043C33.3447 33.6472 33.2764 33.2655 33.2847 32.8816V30.6112C33.2985 29.3372 33.7101 28.0996 34.4615 27.0721C35.213 26.0446 36.2666 25.2789 37.4744 24.8825C38.3084 24.6063 39.0313 24.0678 39.5357 23.3469C40.0401 22.626 40.2991 21.7612 40.2742 20.8809C40.2247 19.807 39.7668 18.7929 38.9946 18.047C38.2224 17.301 37.1946 16.8798 36.1223 16.8699C35.3538 16.8714 34.6015 17.0911 33.9526 17.5037C33.3036 17.9163 32.7846 18.5049 32.4557 19.2011C32.1145 19.873 31.5243 20.3842 30.8116 20.625C30.099 20.8658 29.3206 20.8171 28.6433 20.4894C27.966 20.1616 27.4438 19.5809 27.1885 18.8717C26.9333 18.1626 26.9654 17.3813 27.2779 16.6956C28.0734 15.0289 29.321 13.6205 30.8777 12.6315C32.4345 11.6425 34.2375 11.1129 36.0805 11.1034H36.1398C38.698 11.1186 41.1516 12.1236 42.9886 13.9086C44.8256 15.6936 45.9042 18.1207 45.9993 20.6836C46.0682 22.7994 45.4546 24.881 44.2496 26.6193C43.0446 28.3576 41.3124 29.66 39.3104 30.3329L39.3239 30.3396Z" fill="url(#paint0_linear_175_142)"/>
</g>
<defs>
<linearGradient id="paint0_linear_175_142" x1="1.05147" y1="-21.3245" x2="67.1142" y2="20.5059" gradientUnits="userSpaceOnUse">
<stop stop-color="#CE5BEB"/>
<stop offset="1" stop-color="#5B61EB"/>
</linearGradient>
<clipPath id="clip0_175_142">
<rect width="73" height="69" fill="white"/>
</clipPath>
</defs>
</svg>
