<svg width="188" height="48" viewBox="0 0 188 48" fill="none" xmlns="http://www.w3.org/2000/svg">
<path d="M180.476 48H6.94139C3.12536 48 0 45.2985 0 42V6.00002C0 2.70152 3.12536 2.0524e-05 6.94139 2.0524e-05H180.476C184.292 2.0524e-05 187.418 2.70152 187.418 6.00002V42C187.418 45.2985 184.292 48 180.476 48Z" fill="black"/>
<path d="M67.6966 13.192C67.6966 14.1288 67.3721 14.8791 66.7328 15.4387C65.9978 16.102 65.0405 16.4358 63.8675 16.4358C62.7463 16.4358 61.7891 16.0964 61.0038 15.4275C60.2169 14.7487 59.8242 13.9156 59.8242 12.9185C59.8242 11.9213 60.2169 11.0883 61.0038 10.4151C61.7891 9.74052 62.7463 9.40113 63.8675 9.40113C64.4256 9.40113 64.9578 9.5007 65.4656 9.68583C65.9718 9.87235 66.384 10.1248 66.6825 10.4361L66.0043 11.028C65.4835 10.4964 64.7744 10.2342 63.8675 10.2342C63.0497 10.2342 62.3407 10.481 61.7388 10.9789C61.1433 11.4782 60.8448 12.1247 60.8448 12.9185C60.8448 13.7123 61.1433 14.3644 61.7388 14.8637C62.3407 15.3559 63.0497 15.6084 63.8675 15.6084C64.7355 15.6084 65.4656 15.3559 66.0416 14.8581C66.4213 14.5285 66.6371 14.0741 66.6939 13.4935H63.8675V12.6829H67.6381C67.6836 12.8582 67.6966 13.0279 67.6966 13.192Z" fill="white"/>
<path d="M73.6794 10.3814H70.1375V12.5131H73.3305V13.3237H70.1375V15.4555H73.6794V16.2815H69.1348V9.55534H73.6794V10.3814Z" fill="white"/>
<path d="M77.9003 16.2815H76.8976V10.3814H74.7251V9.55534H80.0745V10.3814H77.9003V16.2815Z" fill="white"/>
<path d="M83.9463 16.2815V9.55534H84.9474V16.2815H83.9463Z" fill="white"/>
<path d="M89.3847 16.2815H88.3901V10.3814H86.2095V9.55534H91.5653V10.3814H89.3847V16.2815Z" fill="white"/>
<path d="M101.693 15.4162C100.925 16.0964 99.9745 16.4358 98.8404 16.4358C97.6998 16.4358 96.749 16.0964 95.9816 15.4162C95.2158 14.7375 94.8345 13.9044 94.8345 12.9185C94.8345 11.9326 95.2158 11.0995 95.9816 10.4207C96.749 9.74052 97.6998 9.40113 98.8404 9.40113C99.968 9.40113 100.919 9.74052 101.686 10.4263C102.459 11.1107 102.84 11.9382 102.84 12.9185C102.84 13.9044 102.459 14.7375 101.693 15.4162ZM96.7231 14.8525C97.3007 15.3559 98.0032 15.6084 98.8404 15.6084C99.6711 15.6084 100.38 15.3559 100.951 14.8525C101.527 14.349 101.819 13.7025 101.819 12.9185C101.819 12.1345 101.527 11.488 100.951 10.9845C100.38 10.481 99.6711 10.2286 98.8404 10.2286C98.0032 10.2286 97.3007 10.481 96.7231 10.9845C96.1471 11.488 95.855 12.1345 95.855 12.9185C95.855 13.7025 96.1471 14.349 96.7231 14.8525Z" fill="white"/>
<path d="M104.247 16.2815V9.55534H105.463L109.247 14.7865H109.291L109.247 13.4934V9.55534H110.248V16.2815H109.203L105.241 10.7923H105.197L105.241 12.091V16.2815H104.247Z" fill="white"/>
<path d="M94.5871 26.104C91.5385 26.104 89.048 28.1095 89.048 30.8765C89.048 33.6211 91.5385 35.6476 94.5871 35.6476C97.6423 35.6476 100.133 33.6211 100.133 30.8765C100.133 28.1095 97.6423 26.104 94.5871 26.104ZM94.5871 33.7684C92.9144 33.7684 91.4752 32.5749 91.4752 30.8765C91.4752 29.1557 92.9144 27.9832 94.5871 27.9832C96.2599 27.9832 97.7056 29.1557 97.7056 30.8765C97.7056 32.5749 96.2599 33.7684 94.5871 33.7684ZM82.5012 26.104C79.446 26.104 76.962 28.1095 76.962 30.8765C76.962 33.6211 79.446 35.6476 82.5012 35.6476C85.5547 35.6476 88.0404 33.6211 88.0404 30.8765C88.0404 28.1095 85.5547 26.104 82.5012 26.104ZM82.5012 33.7684C80.8268 33.7684 79.3828 32.5749 79.3828 30.8765C79.3828 29.1557 80.8268 27.9832 82.5012 27.9832C84.174 27.9832 85.6131 29.1557 85.6131 30.8765C85.6131 32.5749 84.174 33.7684 82.5012 33.7684ZM68.1194 27.5667V29.5947H73.7219C73.558 30.7278 73.1199 31.5609 72.4482 32.1415C71.6305 32.8427 70.3568 33.6211 68.1194 33.6211C64.6716 33.6211 61.9718 31.2159 61.9718 28.2357C61.9718 25.2555 64.6716 22.8503 68.1194 22.8503C69.9836 22.8503 71.3401 23.48 72.3411 24.2962L73.9945 22.8671C72.5942 21.7115 70.7316 20.8237 68.1194 20.8237C63.3915 20.8237 59.418 24.1489 59.418 28.2357C59.418 32.3224 63.3915 35.6476 68.1194 35.6476C70.6748 35.6476 72.5942 34.924 74.1032 33.5664C75.6494 32.2299 76.1313 30.3506 76.1313 28.8331C76.1313 28.3619 76.0858 27.9285 76.0047 27.5667H68.1194ZM126.928 29.1389C126.472 28.0716 125.066 26.104 122.2 26.104C119.361 26.104 116.997 28.0379 116.997 30.8765C116.997 33.5496 119.337 35.6476 122.473 35.6476C125.009 35.6476 126.472 34.3111 127.074 33.5327L125.192 32.4487C124.564 33.2424 123.709 33.7684 122.473 33.7684C121.245 33.7684 120.364 33.2817 119.799 32.3224L127.183 29.6816L126.928 29.1389ZM119.4 30.7278C119.337 28.8878 121.053 27.9454 122.283 27.9454C123.247 27.9454 124.065 28.3619 124.337 28.9579L119.4 30.7278ZM113.398 35.3573H115.826V21.3328H113.398V35.3573ZM109.423 27.167H109.342C108.797 26.6088 107.757 26.104 106.439 26.104C103.675 26.104 101.147 28.202 101.147 30.8919C101.147 33.5664 103.675 35.6476 106.439 35.6476C107.757 35.6476 108.797 35.1386 109.342 34.5635H109.423V35.2479C109.423 37.0725 108.296 38.0529 106.477 38.0529C104.994 38.0529 104.074 37.1272 103.694 36.3489L101.583 37.1104C102.192 38.3754 103.803 39.9321 106.477 39.9321C109.323 39.9321 111.724 38.4848 111.724 34.9632V26.3943H109.423V27.167ZM106.647 33.7684C104.974 33.7684 103.574 32.558 103.574 30.8919C103.574 29.2104 104.974 27.9832 106.647 27.9832C108.296 27.9832 109.595 29.2104 109.595 30.8919C109.595 32.558 108.296 33.7684 106.647 33.7684ZM138.292 21.3328H132.487V35.3573H134.908V30.0434H138.292C140.981 30.0434 143.617 28.3619 143.617 25.6874C143.617 23.0144 140.974 21.3328 138.292 21.3328ZM138.356 28.0926H134.908V23.2836H138.356C140.163 23.2836 141.195 24.5809 141.195 25.6874C141.195 26.7729 140.163 28.0926 138.356 28.0926ZM153.32 26.0773C151.571 26.0773 149.752 26.7449 149.004 28.2245L151.152 29.0028C151.615 28.2245 152.465 27.972 153.364 27.972C154.619 27.972 155.893 28.6242 155.913 29.7756V29.9228C155.474 29.7041 154.537 29.3801 153.383 29.3801C151.069 29.3801 148.712 30.481 148.712 32.5356C148.712 34.4149 150.607 35.6252 152.737 35.6252C154.366 35.6252 155.265 34.9899 155.83 34.2508H155.913V35.3349H158.251V29.9551C158.251 27.4685 156.102 26.0773 153.32 26.0773ZM153.028 33.7627C152.236 33.7627 151.133 33.4234 151.133 32.5749C151.133 31.4894 152.509 31.0728 153.699 31.0728C154.765 31.0728 155.265 31.2762 155.913 31.5441C155.723 32.8427 154.43 33.7627 153.028 33.7627ZM166.769 26.3844L163.986 32.4641H163.903L161.027 26.3844H158.416L162.738 34.8805L160.272 39.6082H162.802L169.462 26.3844H166.769ZM144.948 35.3573H147.375V21.3328H144.948V35.3573Z" fill="white"/>
<path d="M19.6933 10.1565C19.312 10.5015 19.0913 11.0387 19.0913 11.7343V36.5465C19.0913 37.2421 19.312 37.7792 19.6933 38.1242L19.7874 38.2L35.8728 24.3017V23.9735L19.7874 10.0752L19.6933 10.1565Z" fill="url(#paint0_linear_290_122)"/>
<path d="M41.2284 28.9367L35.8726 24.3016V23.9734L41.2349 19.3383L41.355 19.3986L47.7054 22.5219C49.5177 23.4082 49.5177 24.8668 47.7054 25.7587L41.355 28.8764L41.2284 28.9367Z" fill="url(#paint1_linear_290_122)"/>
<path d="M41.3553 28.8764L35.8729 24.1375L19.6934 38.1242C20.2953 38.6711 21.2769 38.7371 22.3932 38.1901L41.3553 28.8764Z" fill="url(#paint2_linear_290_122)"/>
<path d="M41.3553 19.3988L22.3932 10.0852C21.2769 9.54381 20.2953 9.60972 19.6934 10.1567L35.8729 24.1377L41.3553 19.3988Z" fill="url(#paint3_linear_290_122)"/>
<defs>
<linearGradient id="paint0_linear_290_122" x1="34.4446" y1="36.8049" x2="15.8136" y2="15.2507" gradientUnits="userSpaceOnUse">
<stop stop-color="#00A0FF"/>
<stop offset="0.0066" stop-color="#00A1FF"/>
<stop offset="0.2601" stop-color="#00BEFF"/>
<stop offset="0.5122" stop-color="#00D2FF"/>
<stop offset="0.7604" stop-color="#00DFFF"/>
<stop offset="1" stop-color="#00E3FF"/>
</linearGradient>
<linearGradient id="paint1_linear_290_122" x1="50.0654" y1="24.1359" x2="18.6579" y2="24.1359" gradientUnits="userSpaceOnUse">
<stop stop-color="#FFE000"/>
<stop offset="0.4087" stop-color="#FFBD00"/>
<stop offset="0.7754" stop-color="#FFA500"/>
<stop offset="1" stop-color="#FF9C00"/>
</linearGradient>
<linearGradient id="paint2_linear_290_122" x1="38.3741" y1="21.5614" x2="13.109" y2="-7.66782" gradientUnits="userSpaceOnUse">
<stop stop-color="#FF3A44"/>
<stop offset="1" stop-color="#C31162"/>
</linearGradient>
<linearGradient id="paint3_linear_290_122" x1="15.6206" y1="46.3793" x2="26.9027" y2="33.3272" gradientUnits="userSpaceOnUse">
<stop stop-color="#32A071"/>
<stop offset="0.0685" stop-color="#2DA771"/>
<stop offset="0.4762" stop-color="#15CF74"/>
<stop offset="0.8009" stop-color="#06E775"/>
<stop offset="1" stop-color="#00F076"/>
</linearGradient>
</defs>
</svg>
