<svg width="38" height="38" viewBox="0 0 38 38" fill="none" xmlns="http://www.w3.org/2000/svg">
<circle cx="19" cy="19" r="19" fill="#F1F6FF"/>
<g clip-path="url(#clip0_175_128)">
<path d="M22.4683 13.6752C22.2939 13.6752 22.1234 13.727 21.9784 13.8239C21.8334 13.9208 21.7204 14.0585 21.6536 14.2196C21.5869 14.3808 21.5694 14.5581 21.6034 14.7291C21.6375 14.9002 21.7214 15.0573 21.8448 15.1807C21.9681 15.304 22.1252 15.388 22.2963 15.422C22.4674 15.456 22.6447 15.4386 22.8058 15.3718C22.9669 15.3051 23.1047 15.192 23.2016 15.047C23.2985 14.902 23.3502 14.7315 23.3502 14.5571C23.3502 14.3232 23.2573 14.0989 23.0919 13.9335C22.9265 13.7681 22.7022 13.6752 22.4683 13.6752Z" fill="#2E526B"/>
<path d="M18.5594 14.8072C17.828 14.8072 17.113 15.0242 16.505 15.4306C15.8969 15.837 15.4231 16.4146 15.1434 17.0904C14.8637 17.7662 14.7907 18.5098 14.9337 19.227C15.0767 19.9443 15.4292 20.603 15.9467 21.1199C16.4641 21.6368 17.1233 21.9885 17.8407 22.1307C18.5581 22.2729 19.3016 22.1991 19.9771 21.9186C20.6525 21.6381 21.2296 21.1636 21.6354 20.5551C22.0411 19.9466 22.2572 19.2314 22.2564 18.5C22.2552 17.5202 21.8652 16.581 21.172 15.8886C20.4788 15.1962 19.5391 14.8072 18.5594 14.8072ZM18.5594 20.87C18.0904 20.8708 17.6318 20.7325 17.2415 20.4726C16.8512 20.2127 16.5468 19.8429 16.3668 19.4099C16.1867 18.9769 16.1392 18.5003 16.2302 18.0402C16.3211 17.5802 16.5465 17.1575 16.8778 16.8257C17.2091 16.4938 17.6314 16.2677 18.0912 16.1759C18.551 16.0841 19.0278 16.1308 19.4611 16.31C19.8944 16.4893 20.2648 16.793 20.5254 17.1829C20.786 17.5727 20.9251 18.0311 20.9251 18.5C20.9268 18.8119 20.8669 19.1211 20.7488 19.4099C20.6307 19.6986 20.4567 19.9612 20.237 20.1826C20.0172 20.4039 19.7558 20.5797 19.468 20.6999C19.1801 20.82 18.8713 20.8821 18.5594 20.8827V20.87Z" fill="#2E526B"/>
<path d="M21.5059 26.0042H15.5025C14.3083 26.002 13.1638 25.5263 12.3197 24.6815C11.4757 23.8367 11.0011 22.6917 11 21.4975V15.5068C11.0011 14.3126 11.4757 13.1676 12.3197 12.3227C13.1638 11.4779 14.3083 11.0022 15.5025 11H21.5059C22.7009 11.0011 23.8465 11.4763 24.6915 12.3212C25.5364 13.1662 26.0116 14.3119 26.0127 15.5068V21.4975C26.0116 22.6924 25.5364 23.8381 24.6915 24.683C23.8465 25.5279 22.7009 26.0031 21.5059 26.0042ZM15.5025 12.4033C14.6824 12.4056 13.8965 12.7324 13.3165 13.3123C12.7366 13.8922 12.4098 14.6782 12.4076 15.4983V21.489C12.4098 22.3091 12.7366 23.095 13.3165 23.675C13.8965 24.2549 14.6824 24.5817 15.5025 24.5839H21.5059C22.3261 24.5817 23.112 24.2549 23.6919 23.675C24.2719 23.095 24.5987 22.3091 24.6009 21.489V15.5068C24.6009 14.6852 24.2751 13.8971 23.6949 13.3153C23.1147 12.7335 22.3276 12.4056 21.5059 12.4033H15.5025Z" fill="#2E526B"/>
</g>
<defs>
<clipPath id="clip0_175_128">
<rect width="15" height="15" fill="white" transform="translate(11 11)"/>
</clipPath>
</defs>
</svg>
