<svg width="91" height="60" viewBox="0 0 91 60" fill="none" xmlns="http://www.w3.org/2000/svg">
<path d="M6.75855 18.9071C6.57832 18.3639 6.07271 18 5.49996 18C4.9272 18 4.42159 18.3649 4.24137 18.9081C3.5511 20.9918 2.99068 21.5528 0.909014 22.2406C0.365875 22.4198 0.00098794 22.9255 1.99923e-06 23.4983C-0.000985458 24.0725 0.363904 24.5787 0.908029 24.7594C2.99076 25.4472 3.55161 26.0082 4.24139 28.0929C4.4226 28.6351 4.92772 29 5.49949 29C6.07126 29 6.57785 28.6351 6.75808 28.0919C7.44835 26.0082 8.00877 25.4472 10.093 24.7584C10.6361 24.5782 11.001 24.0715 11 23.4973C10.999 22.9245 10.6351 22.4188 10.093 22.2406C8.00934 21.5527 7.44836 20.9908 6.75858 18.9071L6.75855 18.9071ZM5.49946 25.434C5.00965 24.5911 4.40776 23.9896 3.56487 23.4993C4.40871 23.0094 5.00915 22.4075 5.49946 21.5646C5.98927 22.4075 6.59116 23.0089 7.43405 23.4993C6.59269 23.9896 5.99079 24.591 5.49946 25.434ZM9.3962 24.3412C9.39719 24.3412 9.39719 24.3412 9.3962 24.3412H9.39818H9.3962Z" fill="#2980E7"/>
<path d="M75 29.3865C75 28.7489 74.8214 28.1109 74.4637 27.5644L70.3516 20.7311C69.726 19.6375 68.5637 19 67.4016 19H56.4065C55.8702 19 55.5126 19.3645 55.5126 19.9111V41.0487H16.8939C16.3576 41.0487 16 41.4132 16 41.9598V53.0757C16 53.6222 16.3576 53.9867 16.8939 53.9867H20.0225C19.9332 57.3579 22.6148 60 25.7439 60C28.9622 60 31.4653 57.3579 31.4653 54.1688V53.9867H33.0744V54.1688C33.0744 57.3574 35.6668 60 38.7959 60C41.9244 60 44.6065 57.3579 44.5173 53.9867H59.714C59.6247 57.3579 62.3063 60 65.4354 60C68.6538 60 71.2461 57.3579 71.1569 53.9867H73.8385C74.3748 53.9867 74.7324 53.6222 74.7324 53.0757C74.9999 39.5008 74.9999 48.0649 74.9999 29.3867L75 29.3865ZM68.9214 21.6422L73.0336 28.4755C73.2122 28.749 73.3019 29.022 73.3019 29.3865V36.0374L57.3003 36.0378V20.8222H67.4912C68.0274 20.8222 68.5641 21.1867 68.9217 21.6422H68.9214ZM57.3005 37.8597H73.2126V41.0483H57.3005V37.8597ZM25.8335 58.177C23.6881 58.177 21.9003 56.3549 21.9003 54.1683C21.9003 51.9817 23.6881 50.1596 25.8335 50.1596C27.9789 50.1596 29.7667 51.9817 29.7667 54.1683C29.7671 56.3549 27.9789 58.177 25.8335 58.177ZM38.8851 58.177C36.7397 58.177 34.9519 56.3549 34.9519 54.1683C34.9519 51.9817 36.7397 50.1596 38.8851 50.1596C41.0305 50.1596 42.8183 51.9817 42.8183 54.1683C42.908 56.3549 41.1203 58.177 38.8851 58.177ZM65.6143 58.177C63.4689 58.177 61.6811 56.3549 61.6811 54.1683C61.6811 51.9817 63.4689 50.1596 65.6143 50.1596C67.7596 50.1596 69.5474 51.9817 69.5474 54.1683C69.6368 56.3549 67.849 58.177 65.6143 58.177ZM73.2127 52.1637H71.0673C70.2627 49.8861 68.1173 48.3371 65.7036 48.3371C63.2005 48.3371 61.1445 49.9771 60.3399 52.1637H44.3382C43.5336 49.8861 41.3882 48.3371 38.9745 48.3371C36.4714 48.3371 34.4153 49.9771 33.6107 52.1637H31.1974C30.3928 49.8861 28.2474 48.3371 25.8337 48.3371C23.3306 48.3371 21.2746 49.9771 20.4699 52.1637H17.7883V42.8708H73.2125L73.2127 52.1637Z" fill="#2E526B"/>
<path d="M59.9008 33.9999H68.0987C68.6392 33.9999 68.9996 33.6427 68.9996 33.1071L69 29.5356C69 29.3572 69 29.2676 68.91 29.0892L66.2075 24.4464C66.0275 24.1784 65.7571 24 65.3967 24H59.9013C59.3608 24 59.0004 24.3572 59.0004 24.8928L59 33.1068C59 33.6428 59.4504 34 59.9008 34L59.9008 33.9999ZM60.8017 25.7856H64.8559L67.1983 29.8036L67.1979 32.214H60.8017L60.8017 25.7856Z" fill="#2E526B"/>
<path d="M17 38.122C17 38.6487 17.3601 39 17.8999 39H34.1001C34.6399 39 35 38.6487 35 38.122V21.878C35 21.3513 34.6399 21 34.1001 21H17.8999C17.3601 21 17 21.3513 17 21.878V38.122ZM18.7999 37.244V26.5313H22.9399V28.5509C22.9399 28.9021 23.2101 29.2534 23.5697 29.3411C23.9298 29.4289 24.2898 29.3411 24.5596 29.0776L26.0897 27.3215L27.6199 29.0776C27.8901 29.3411 28.2497 29.5166 28.6098 29.3411C28.9698 29.2534 29.2396 28.9021 29.2396 28.5509V26.5313H33.3796V37.244H18.7999ZM33.2 24.7762H29.06V22.7565H33.2V24.7762ZM27.35 22.7565V26.0931L26.7202 25.3905C26.5404 25.2151 26.2703 25.0393 26.0001 25.0393C25.73 25.0393 25.4602 25.127 25.28 25.3905L24.6502 26.0931V22.7565H27.35ZM22.9403 22.7565V24.7762H18.8002V22.7565H22.9403Z" fill="#2980E7"/>
<path d="M36.8999 21C36.3601 21 36 21.3513 36 21.878V38.122C36 38.6487 36.3601 39 36.8999 39H53.1001C53.6399 39 54 38.6487 54 38.122V21.878C54 21.3513 53.6399 21 53.1001 21H36.8999ZM41.94 22.756V24.7756H37.7999V22.756H41.94ZM37.7999 37.2439V26.5312H41.94V28.5508C41.94 28.902 42.2101 29.2533 42.5698 29.341C42.9298 29.4288 43.2899 29.341 43.5596 29.0775L45.0898 27.3214L46.62 29.0775C46.8901 29.341 47.2497 29.5165 47.6098 29.341C47.9699 29.2533 48.2396 28.902 48.2396 28.5508V26.5312H52.3796V37.2439H37.7999ZM52.2001 24.7761H48.06V22.7564H52.2001V24.7761ZM46.2601 22.7564V26.093L45.6303 25.3904C45.4505 25.215 45.1803 25.0392 44.9102 25.0392C44.64 25.0392 44.3703 25.1269 44.1901 25.3904L43.5603 26.093V22.7564H46.2601Z" fill="#2980E7"/>
<path d="M26 18.1122C26 18.6448 26.3536 19 26.8837 19H44.1163C44.6464 19 45 18.6448 45 18.1122V0.887789C45 0.355203 44.6464 0 44.1163 0H26.8837C26.3536 0 26 0.355193 26 0.887789V18.1122ZM27.7674 17.2244V5.77077H32.2746V7.99024C32.2746 8.34544 32.5398 8.70064 32.893 8.78933C33.2465 8.87803 33.6001 8.78933 33.865 8.52283L35.5441 6.56945L37.2232 8.52283C37.4884 8.78933 37.8416 8.87802 38.1952 8.78933C38.5487 8.70063 38.8136 8.34544 38.8136 7.99024L38.814 5.77077H43.3211V17.2234L27.7674 17.2244ZM43.2325 3.99507H38.7254V1.7756H43.2325V3.99507ZM36.9579 1.7756V5.5932L36.1625 4.70541C35.986 4.52802 35.7207 4.35022 35.4554 4.35022C35.1901 4.35022 34.9253 4.43892 34.7483 4.70541L33.9529 5.5932L33.9533 1.7756H36.9579ZM32.2741 1.7756V3.99507H27.767V1.7756H32.2741Z" fill="#2980E7"/>
<path d="M86.7585 28.9071C86.5783 28.3639 86.0727 28 85.5 28C84.9272 28 84.4216 28.3649 84.2414 28.9081C83.5511 30.9918 82.9907 31.5528 80.909 32.2406C80.3659 32.4198 80.001 32.9255 80 33.4983C79.999 34.0725 80.3639 34.5787 80.908 34.7594C82.9908 35.4472 83.5516 36.0082 84.2414 38.0929C84.4226 38.6351 84.9277 39 85.4995 39C86.0713 39 86.5779 38.6351 86.7581 38.0919C87.4483 36.0082 88.0088 35.4472 90.093 34.7584C90.6361 34.5782 91.001 34.0715 91 33.4973C90.999 32.9245 90.6351 32.4188 90.093 32.2406C88.0093 31.5527 87.4484 30.9908 86.7586 28.9071L86.7585 28.9071ZM85.4995 35.434C85.0097 34.5911 84.4078 33.9896 83.5649 33.4993C84.4087 33.0094 85.0091 32.4075 85.4995 31.5646C85.9893 32.4075 86.5912 33.0089 87.4341 33.4993C86.5927 33.9896 85.9908 34.591 85.4995 35.434ZM89.3962 34.3412C89.3972 34.3412 89.3972 34.3412 89.3962 34.3412H89.3982H89.3962Z" fill="#2980E7"/>
</svg>
