<svg width="96" height="58" viewBox="0 0 96 58" fill="none" xmlns="http://www.w3.org/2000/svg">
<path d="M6.75855 8.90708C6.57832 8.36392 6.07271 8 5.49996 8C4.9272 8 4.42159 8.3649 4.24137 8.90807C3.5511 10.9918 2.99068 11.5528 0.909014 12.2406C0.365875 12.4198 0.00098794 12.9255 1.99923e-06 13.4983C-0.000985458 14.0725 0.363904 14.5787 0.908029 14.7594C2.99076 15.4472 3.55161 16.0082 4.24139 18.0929C4.4226 18.6351 4.92772 19 5.49949 19C6.07126 19 6.57785 18.6351 6.75808 18.0919C7.44835 16.0082 8.00877 15.4472 10.093 14.7584C10.6361 14.5782 11.001 14.0715 11 13.4973C10.999 12.9245 10.6351 12.4188 10.093 12.2406C8.00934 11.5527 7.44836 10.9908 6.75858 8.90706L6.75855 8.90708ZM5.49946 15.434C5.00965 14.5911 4.40776 13.9896 3.56487 13.4993C4.40871 13.0094 5.00915 12.4075 5.49946 11.5646C5.98927 12.4075 6.59116 13.0089 7.43405 13.4993C6.59269 13.9896 5.99079 14.591 5.49946 15.434ZM9.3962 14.3412C9.39719 14.3412 9.39719 14.3412 9.3962 14.3412H9.39818H9.3962Z" fill="#5752DA"/>
<path d="M91.7585 31.9071C91.5783 31.3639 91.0727 31 90.5 31C89.9272 31 89.4216 31.3649 89.2414 31.9081C88.5511 33.9918 87.9907 34.5528 85.909 35.2406C85.3659 35.4198 85.001 35.9255 85 36.4983C84.999 37.0725 85.3639 37.5787 85.908 37.7594C87.9908 38.4472 88.5516 39.0082 89.2414 41.0929C89.4226 41.6351 89.9277 42 90.4995 42C91.0713 42 91.5779 41.6351 91.7581 41.0919C92.4483 39.0082 93.0088 38.4472 95.093 37.7584C95.6361 37.5782 96.001 37.0715 96 36.4973C95.999 35.9245 95.6351 35.4188 95.093 35.2406C93.0093 34.5527 92.4484 33.9908 91.7586 31.9071L91.7585 31.9071ZM90.4995 38.434C90.0097 37.5911 89.4078 36.9896 88.5649 36.4993C89.4087 36.0094 90.0091 35.4075 90.4995 34.5646C90.9893 35.4075 91.5912 36.0089 92.4341 36.4993C91.5927 36.9896 90.9908 37.591 90.4995 38.434ZM94.3962 37.3412C94.3972 37.3412 94.3972 37.3412 94.3962 37.3412H94.3982H94.3962Z" fill="#5752DA"/>
<path d="M67.8211 30.4038H62.8056C62.3014 30.4038 61.8183 30.6038 61.462 30.9601C61.1053 31.3164 60.9053 31.7999 60.9053 32.3037V36.1044C60.9053 36.6082 61.1053 37.0917 61.462 37.448C61.8183 37.8043 62.3014 38.0043 62.8056 38.0043H66.4882C66.8823 38.0047 67.2668 37.8822 67.5885 37.654C67.9102 37.4261 68.1528 37.1037 68.2828 36.7315L69.6129 32.9312V32.9308C69.8161 32.3498 69.7254 31.7069 69.3695 31.2046C69.0132 30.7028 68.4363 30.4041 67.8211 30.4037L67.8211 30.4038ZM66.4911 36.1044H62.8057V32.3037H67.8176L66.4911 36.1044Z" fill="#5752DA"/>
<path d="M45.7038 30.4038H41.542C40.9189 30.4026 40.3344 30.7072 39.9785 31.2193C39.6226 31.7311 39.5407 32.3848 39.759 32.969L41.171 36.7549H41.1707C41.3043 37.1216 41.5472 37.4377 41.8669 37.6612C42.1862 37.885 42.5668 38.0047 42.9569 38.0043H45.7037C46.2076 38.0043 46.6911 37.8043 47.0474 37.448C47.4036 37.0917 47.6037 36.6082 47.6037 36.1044V32.3037C47.6037 31.7999 47.4037 31.3164 47.0474 30.9601C46.6911 30.6038 46.2075 30.4038 45.7037 30.4038L45.7038 30.4038ZM45.7038 36.1044H42.954L41.5376 32.3041L45.7038 32.3037V36.1044Z" fill="#5752DA"/>
<path d="M57.1053 30.4037H51.4047C50.9005 30.4037 50.4174 30.6038 50.0611 30.96C49.7044 31.3163 49.5044 31.7999 49.5044 32.3037V36.1044C49.5044 36.6082 49.7044 37.0917 50.0611 37.448C50.4174 37.8043 50.9005 38.0043 51.4047 38.0043H57.1053C57.6092 38.0043 58.0927 37.8043 58.449 37.448C58.8052 37.0917 59.0053 36.6081 59.0053 36.1044V32.3037C59.0053 31.7998 58.8052 31.3163 58.449 30.96C58.0927 30.6038 57.6091 30.4037 57.1053 30.4037ZM57.1053 36.1044H51.4047V32.3037H57.1053V36.1044Z" fill="#5752DA"/>
<path d="M57.1053 20.9022H51.4047C50.9005 20.9022 50.4174 21.1026 50.0611 21.4589C49.7044 21.8152 49.5044 22.2987 49.5044 22.8025V26.6028C49.5044 27.107 49.7044 27.5901 50.0611 27.9464C50.4174 28.3031 50.9005 28.5031 51.4047 28.5031H57.1053C57.6092 28.5031 58.0927 28.3031 58.449 27.9464C58.8052 27.5901 59.0053 27.107 59.0053 26.6028V22.8025C59.0053 22.2987 58.8052 21.8151 58.449 21.4589C58.0927 21.1026 57.6091 20.9022 57.1053 20.9022ZM57.1053 26.6028H51.4047V22.8025H57.1053V26.6028Z" fill="#5752DA"/>
<path d="M45.7041 20.9022H38.008C37.3849 20.9018 36.8012 21.2068 36.4456 21.7185C36.0905 22.2303 36.0086 22.884 36.2265 23.4678L37.6394 27.2577C37.7714 27.6219 38.0128 27.9373 38.3301 28.16C38.6474 28.3826 39.0256 28.5027 39.4133 28.5031H45.7041C46.2079 28.5031 46.6914 28.3031 47.0477 27.9464C47.404 27.5901 47.604 27.107 47.604 26.6028V22.8025C47.604 22.2987 47.404 21.8152 47.0477 21.4589C46.6914 21.1026 46.2078 20.9022 45.7041 20.9022L45.7041 20.9022ZM45.7041 26.6028H39.4209L38.008 22.8025L37.1177 23.1341L38.008 22.8025H45.7041V26.6028Z" fill="#5752DA"/>
<path d="M60.9053 22.8027V26.6029C60.9053 27.1071 61.1053 27.5903 61.462 27.9466C61.8183 28.3032 62.3014 28.5033 62.8056 28.5033H69.0952C69.4817 28.5041 69.8594 28.386 70.1768 28.1649C70.4941 27.9442 70.7354 27.6308 70.869 27.2682L72.2846 23.4679C72.5029 22.8838 72.4206 22.2301 72.0647 21.7179C71.7088 21.2061 71.1247 20.9016 70.5012 20.9023H62.8056C62.3014 20.9023 61.8182 21.1028 61.462 21.4591C61.1053 21.8153 60.9053 22.2989 60.9053 22.8027L60.9053 22.8027ZM69.0952 26.6029H62.8057V22.8027H70.5017L69.0952 26.6029Z" fill="#5752DA"/>
<path d="M43.1509 9.77863C42.23 10.1103 41.4335 10.7175 40.8704 11.5179C40.3074 12.3184 40.0044 13.2731 40.0032 14.2517V17.102H35.8852L34.5873 13.6198C34.2568 12.6941 33.6488 11.8928 32.8461 11.3258C32.0432 10.7588 31.0849 10.4534 30.1019 10.4514H23.9643C23.2764 10.4403 22.6067 10.6717 22.0723 11.1052C21.5378 11.5382 21.1728 12.1454 21.0408 12.8209C20.8992 13.6488 21.1302 14.4974 21.6718 15.1396C22.2138 15.7818 23.0111 16.152 23.8513 16.152H29.4568L41.134 47.5522C41.3551 48.1364 41.7619 48.6318 42.2923 48.9623C41.437 49.8359 40.9506 51.0054 40.9343 52.2282C40.918 53.451 41.3729 54.6327 42.2045 55.5294C43.0363 56.4257 44.1807 56.9677 45.4011 57.0429C46.6218 57.118 47.8244 56.7208 48.7596 55.9331C49.6948 55.1457 50.2913 54.0283 50.4253 52.8132C50.5593 51.5976 50.2201 50.3772 49.4785 49.405H61.8794C61.2511 50.2226 60.9087 51.2243 60.9055 52.2554C60.902 53.8388 61.6873 55.3199 62.9999 56.2052C64.3126 57.0903 65.9802 57.2637 67.4468 56.6668C68.9134 56.07 69.9861 54.7816 70.3075 53.2312C70.6292 51.6811 70.1572 50.0723 69.049 48.9414C69.7433 48.527 70.2236 47.8316 70.3648 47.0354C70.5064 46.2079 70.2757 45.3597 69.7346 44.7175C69.1934 44.0753 68.3961 43.7047 67.5563 43.7043H45.786L45.0762 41.804L68.5068 41.8044C69.0981 41.8036 69.6747 41.6195 70.157 41.2775C70.6394 40.9355 71.004 40.4524 71.2001 39.8945L77.8506 20.888H77.851C78.1541 20.0163 78.0161 19.0521 77.4812 18.3001C76.9464 17.5481 76.0803 17.1017 75.1574 17.102H71.5679C72.7437 15.6537 73.3418 13.8218 73.2479 11.9592C73.1537 10.0962 72.3735 8.33389 71.0576 7.01165C71.2843 6.83628 71.5269 6.682 71.7818 6.55078C72.2514 6.31657 72.4419 5.74555 72.2072 5.27598C71.9726 4.80636 71.402 4.61589 70.9324 4.8505C70.4187 5.10937 69.9399 5.43225 69.5073 5.81081C67.8515 4.82067 65.8772 4.50812 63.9967 4.93878C62.6216 1.91266 60.4907 0 58.0555 0C54.4688 0 51.5247 4.10364 50.6987 10.0218C50.5237 9.92915 50.3428 9.84803 50.1571 9.77844C49.7873 9.67108 49.5256 9.34222 49.5046 8.95771V5.43655C50.0907 5.09975 50.4525 4.47624 50.4545 3.80027V1.90033C50.4545 1.39612 50.2545 0.912986 49.8982 0.556717C49.5419 0.200031 49.0584 1.01797e-05 48.5546 1.01797e-05H44.7539C44.2501 1.01797e-05 43.7666 0.200021 43.4103 0.556717C43.054 0.913006 42.854 1.39614 42.854 1.90033V3.80027C42.856 4.47626 43.2178 5.09981 43.804 5.43655V8.95771C43.7829 9.34222 43.5212 9.67108 43.1514 9.77844L43.1509 9.77863ZM48.5541 52.2554C48.5541 53.0113 48.2535 53.7367 47.719 54.2711C47.1846 54.8055 46.4597 55.1057 45.7038 55.1057C44.9478 55.1057 44.2225 54.8055 43.6881 54.2711C43.1536 53.7367 42.8534 53.0114 42.8534 52.2554C42.8534 51.4995 43.1536 50.7746 43.6881 50.2401C44.2225 49.7057 44.9478 49.4051 45.7038 49.4051C46.4597 49.4051 47.1846 49.7057 47.719 50.2401C48.2535 50.7746 48.5541 51.4995 48.5541 52.2554ZM65.6559 55.1057C64.9 55.1057 64.1747 54.8055 63.6403 54.2711C63.1058 53.7366 62.8056 53.0113 62.8056 52.2554C62.8056 51.4994 63.1058 50.7745 63.6403 50.2401C64.1747 49.7057 64.9 49.4051 65.6559 49.4051C66.4119 49.4051 67.1368 49.7057 67.6712 50.2401C68.2057 50.7745 68.5063 51.4994 68.5063 52.2554C68.5063 53.0113 68.2057 53.7366 67.6712 54.2711C67.1368 54.8055 66.4119 55.1057 65.6559 55.1057ZM75.9262 19.3923L75.933 19.4039H75.9326C76.1103 19.6544 76.1561 19.9757 76.0551 20.2655L69.4045 39.268C69.2709 39.6501 68.9102 39.9054 68.5058 39.9046H45.0752C44.4521 39.9038 43.868 40.2088 43.5124 40.7206C43.1569 41.2323 43.0746 41.886 43.2929 42.4698L44.0007 44.3566C44.1328 44.7225 44.3741 45.0386 44.6922 45.2621C45.0104 45.4855 45.3897 45.6052 45.7782 45.6052H67.5556C67.8376 45.6056 68.1048 45.7313 68.2849 45.948C68.465 46.1647 68.5398 46.4502 68.4889 46.7274C68.3732 47.2046 67.9338 47.5314 67.4434 47.5056H43.8032C43.4083 47.5044 43.0556 47.259 42.9168 46.8896L31.2427 15.4995C31.1087 15.1337 30.8658 14.8176 30.5461 14.5945C30.2268 14.3714 29.8462 14.2517 29.4565 14.2521H23.851C23.5691 14.2521 23.3014 14.1265 23.1213 13.9098C22.9408 13.693 22.866 13.4075 22.9169 13.13C23.0334 12.6524 23.4732 12.3255 23.9639 12.3518H30.1015C30.6948 12.3538 31.2726 12.5391 31.7561 12.8826C32.2397 13.2262 32.6051 13.7109 32.8019 14.27L34.1006 17.7558V17.7562C34.2346 18.122 34.478 18.4381 34.7977 18.6608C35.1174 18.8839 35.498 19.0032 35.8876 19.0028H75.1568C75.4614 18.9996 75.7481 19.1455 75.9255 19.3932L75.9262 19.3923ZM65.6559 6.65041C66.5399 6.6512 67.4119 6.85917 68.2013 7.25761C68.0001 7.53437 67.818 7.82465 67.6557 8.12606C67.5432 8.35152 67.5249 8.61277 67.6044 8.85176C67.6843 9.09074 67.8557 9.28837 68.0816 9.4009C68.5512 9.63551 69.1218 9.44504 69.3564 8.97542C69.4701 8.76824 69.5974 8.56863 69.7365 8.37776C70.9259 9.59179 71.5084 11.275 71.3248 12.9646C71.1407 14.6538 70.2094 16.172 68.7866 17.1018H65.3461C65.5545 15.8456 65.6579 14.5747 65.6559 13.3015C65.6714 11.0751 65.3457 8.85977 64.6904 6.73242C65.0093 6.67754 65.3322 6.6505 65.6559 6.6505L65.6559 6.65041ZM58.055 1.90016C61.1447 1.90016 63.7556 7.1256 63.7556 13.3014C63.7564 14.5759 63.6411 15.848 63.4109 17.1017H53.3044V14.2514C53.304 13.274 53.0013 12.3204 52.4391 11.5208C52.8721 6.1005 55.2998 1.90016 58.055 1.90016H58.055ZM49.5164 11.5673C50.0687 11.7665 50.5462 12.1312 50.8843 12.6111C51.2219 13.0915 51.4036 13.6641 51.4044 14.2514V17.1017H41.9031V14.2514C41.9039 13.6641 42.0856 13.0914 42.4232 12.6111C42.7612 12.1312 43.2388 11.7665 43.7912 11.5673C44.3423 11.386 44.8227 11.0368 45.1658 10.5688C45.5086 10.1008 45.6967 9.53771 45.7039 8.95757V5.70048H47.6042L47.6038 8.95757C47.611 9.53773 47.7991 10.1008 48.1418 10.5688C48.485 11.0368 48.9653 11.386 49.5165 11.5673H49.5164ZM44.7534 1.90016H48.5537V3.8005L44.7534 3.80011V1.90016Z" fill="#2E526B"/>
<path d="M57.1051 7.60108H59.0055H59.0051C59.53 7.60108 59.9555 7.1756 59.9555 6.65071C59.9555 6.12623 59.53 5.70074 59.0051 5.70074H57.1052C56.5803 5.70074 56.1548 6.12623 56.1548 6.65071C56.1548 7.1756 56.5803 7.60108 57.1052 7.60108H57.1051Z" fill="#2E526B"/>
<path d="M56.1546 11.4013H59.9552C60.4797 11.4013 60.9052 10.9758 60.9052 10.4513C60.9052 9.92646 60.4797 9.50098 59.9552 9.50098H56.1546C55.6301 9.50098 55.2046 9.92646 55.2046 10.4513C55.2046 10.9758 55.6301 11.4013 56.1546 11.4013Z" fill="#2E526B"/>
<path d="M56.1546 15.2014H59.9552C60.4797 15.2014 60.9052 14.7763 60.9052 14.2514C60.9052 13.7265 60.4797 13.3015 59.9552 13.3015H56.1546C55.6301 13.3015 55.2046 13.7265 55.2046 14.2514C55.2046 14.7763 55.6301 15.2014 56.1546 15.2014Z" fill="#2E526B"/>
<path d="M21.9509 23.7524H28.6019C29.1264 23.7524 29.5519 23.3273 29.5519 22.8024C29.5519 22.2776 29.1264 21.8525 28.6019 21.8525H21.9509C21.4265 21.8525 21.001 22.2776 21.001 22.8024C21.001 23.3273 21.4265 23.7524 21.9509 23.7524Z" fill="#2E526B"/>
<path d="M21.9509 33.254H31.4523C31.9767 33.254 32.4022 32.8286 32.4022 32.3037C32.4022 31.7792 31.9767 31.3537 31.4523 31.3537H21.9509C21.4265 31.3537 21.001 31.7792 21.001 32.3037C21.001 32.8286 21.4265 33.254 21.9509 33.254Z" fill="#2E526B"/>
<path d="M23.8513 40.8543C23.3265 40.8543 22.9014 41.2798 22.9014 41.8047C22.9014 42.3292 23.3265 42.7546 23.8513 42.7546H31.4523C31.9768 42.7546 32.4023 42.3292 32.4023 41.8047C32.4023 41.2798 31.9768 40.8543 31.4523 40.8543H23.8513Z" fill="#2E526B"/>
<path d="M22.901 26.6027C22.3762 26.6027 21.9507 27.0282 21.9507 27.5531C21.9507 28.0776 22.3762 28.5031 22.901 28.5031H30.502H30.5016C31.0265 28.5031 31.452 28.0776 31.452 27.5531C31.452 27.0282 31.0265 26.6027 30.5016 26.6027H22.901Z" fill="#2E526B"/>
<path d="M21.9509 38.0039H27.6516C28.1765 38.0039 28.6019 37.5789 28.6019 37.054C28.6019 36.5291 28.1765 36.104 27.6516 36.104H21.9509C21.4265 36.104 21.001 36.5291 21.001 37.054C21.001 37.5789 21.4265 38.0039 21.9509 38.0039Z" fill="#2E526B"/>
<path d="M34.3026 37.0543C34.3026 36.8022 34.2024 36.5608 34.0243 36.3823C33.8461 36.2041 33.6044 36.1043 33.3523 36.1043H31.4523C30.9274 36.1043 30.502 36.5294 30.502 37.0543C30.502 37.5792 30.9274 38.0042 31.4523 38.0042H33.3527H33.3523C33.6044 38.0042 33.8461 37.9044 34.0243 37.7263C34.2024 37.5477 34.3026 37.3064 34.3026 37.0543L34.3026 37.0543Z" fill="#2E526B"/>
</svg>
