<svg width="83" height="59" viewBox="0 0 83 59" fill="none" xmlns="http://www.w3.org/2000/svg">
<path d="M22.9002 41.9005H28.357C27.187 43.7214 26.5003 45.8802 26.5003 48.2005V51.8006C26.5003 52.2972 26.9037 52.7006 27.4003 52.7006H32.8626C33.3082 56.2468 36.3357 59.0007 40.0004 59.0007C43.6651 59.0007 46.693 56.2468 47.1383 52.7006H60.7567C61.2015 56.2476 64.2362 59.0007 67.9009 59.0007C71.5656 59.0007 74.5935 56.2468 75.0387 52.7006H75.101C75.5976 52.7006 76.001 52.2972 76.001 51.8006V45.9678C76.001 41.9844 73.9949 38.3294 70.6343 36.191C67.9415 34.4774 66.2962 31.6075 66.1334 28.4438C67.3698 29.5282 69.05 30.2004 70.601 30.2004C71.0976 30.2004 71.501 29.797 71.501 29.3004V20.3003C71.501 19.8037 71.0976 19.4003 70.601 19.4003C68.2971 19.4003 65.7032 20.8789 64.7168 23.0003H57.1008C56.6042 23.0003 56.2008 23.4037 56.2008 23.9003V27.5003C56.2008 27.997 56.6042 28.4004 57.1008 28.4004H60.7009V47.3005H53.455C53.1641 43.5068 51.0612 40.2218 48.0071 38.3004H53.5008C53.9974 38.3004 54.4008 37.8971 54.4008 37.4004V16.7002C54.4008 16.2036 53.9974 15.8002 53.5008 15.8002H22.9005C22.4039 15.8002 22.0005 16.2036 22.0005 16.7002V41.0005C22.0005 41.4971 22.4039 41.9005 22.9005 41.9005H22.9002ZM67.9007 57.2006C65.2304 57.2006 63.0129 55.2503 62.5818 52.7006H64.4284C64.8306 54.2487 66.2284 55.4006 67.9007 55.4006C69.573 55.4006 70.9708 54.2487 71.373 52.7006H73.2196C72.7885 55.2503 70.571 57.2006 67.9007 57.2006ZM66.351 52.7006H69.4509C69.1387 53.2362 68.5645 53.6006 67.9012 53.6006C67.2374 53.6006 66.6633 53.2362 66.3511 52.7006H66.351ZM69.7007 21.3011V28.2994C67.9095 27.9125 66.1007 26.4581 66.1007 24.8002C66.1007 23.1423 67.9095 21.6879 69.7007 21.301V21.3011ZM62.5006 24.8003H64.3007V27.9331C64.3007 31.8895 66.2834 35.5184 69.6027 37.662C66.5523 38.4985 64.3007 41.2886 64.3007 44.6005H66.1007C66.1007 41.6297 68.5118 39.2121 71.4811 39.2013C73.2092 40.9997 74.2007 43.4008 74.2007 45.9678V50.9006H62.5006V24.8003ZM58.0006 26.6003V24.8003H60.7006V26.6003H58.0006ZM60.7006 50.9006H53.5005V49.1006H60.7006V50.9006ZM23.8003 40.1005V38.3004H31.9931C31.1823 38.8107 30.4378 39.413 29.7764 40.1005H23.8003ZM48.1005 50.9006H31.9003V50.0006C31.9003 45.5347 35.5345 41.9005 40.0004 41.9005C44.4663 41.9005 48.1005 45.5347 48.1005 50.0006V50.9006ZM41.5501 52.7006C41.2379 53.2362 40.6637 53.6006 40.0004 53.6006C39.3371 53.6006 38.7629 53.2362 38.4508 52.7006H41.5501ZM40.0004 57.2006C37.3301 57.2006 35.1126 55.2503 34.6815 52.7006H36.5281C36.9303 54.2487 38.3281 55.4006 40.0004 55.4006C41.6727 55.4006 43.0705 54.2487 43.4727 52.7006H45.3193C44.8882 55.2503 42.6707 57.2006 40.0004 57.2006ZM51.7005 48.2005V50.9006H49.9005V50.0006C49.9005 44.5419 45.4591 40.1005 40.0004 40.1005C34.5417 40.1005 30.1003 44.5419 30.1003 50.0006V50.9006H28.3003V48.2005C28.3003 42.7419 32.7417 38.3004 38.2004 38.3004H41.8004C47.2591 38.3004 51.7005 42.7419 51.7005 48.2005ZM52.6005 17.6002V36.5004H23.8003V17.6002H52.6005Z" fill="#2E526B"/>
<path d="M49.9002 32.9004H48.1002V32.0004C48.1002 26.8451 44.1385 22.6026 39.1001 22.1461V20.3003H37.3001V22.1461C32.2617 22.6025 28.3 26.8451 28.3 32.0004V32.9004H26.5V34.7004H49.9002V32.9004ZM30.1 32.0004C30.1 27.5345 33.7342 23.9003 38.2001 23.9003C42.666 23.9003 46.3002 27.5345 46.3002 32.0004V32.9004H30.1V32.0004Z" fill="#37C8DC"/>
<path d="M48.1003 14.0001H49.9003C49.9003 9.03759 45.8627 5 40.9002 5H25.6001V6.80002H40.9002C44.8704 6.80002 48.1003 10.03 48.1003 14.0001Z" fill="#37C8DC"/>
<path d="M34.6001 8.6001V10.4001H40.0002C41.9854 10.4001 43.6002 12.0149 43.6002 14.0002H45.4002C45.4002 11.0221 42.9782 8.6001 40.0002 8.6001H34.6001Z" fill="#37C8DC"/>
<path d="M31 8.6001H32.8V10.4001H31V8.6001Z" fill="#37C8DC"/>
<path d="M22 5.00006H23.8V6.80008H22V5.00006Z" fill="#37C8DC"/>
<path d="M27.3999 8.6001H29.1999V10.4001H27.3999V8.6001Z" fill="#37C8DC"/>
<path d="M32.7437 28.8497L34.3014 29.7514C35.1054 28.3628 36.5993 27.5005 38.2004 27.5005V25.7005C35.9584 25.7005 33.8679 26.9074 32.7437 28.8497V28.8497Z" fill="#37C8DC"/>
<path d="M64.3003 46.4004H66.1003V48.2004H64.3003V46.4004Z" fill="#2E526B"/>
<path d="M6.75855 38.9071C6.57832 38.3639 6.07271 38 5.49996 38C4.9272 38 4.42159 38.3649 4.24137 38.9081C3.5511 40.9918 2.99068 41.5528 0.909014 42.2406C0.365875 42.4198 0.00098794 42.9255 1.99923e-06 43.4983C-0.000985458 44.0725 0.363904 44.5787 0.908029 44.7594C2.99076 45.4472 3.55161 46.0082 4.24139 48.0929C4.4226 48.6351 4.92772 49 5.49949 49C6.07126 49 6.57785 48.6351 6.75808 48.0919C7.44835 46.0082 8.00877 45.4472 10.093 44.7584C10.6361 44.5782 11.001 44.0715 11 43.4973C10.999 42.9245 10.6351 42.4188 10.093 42.2406C8.00934 41.5527 7.44836 40.9908 6.75858 38.9071L6.75855 38.9071ZM5.49946 45.434C5.00965 44.5911 4.40776 43.9896 3.56487 43.4993C4.40871 43.0094 5.00915 42.4075 5.49946 41.5646C5.98927 42.4075 6.59116 43.0089 7.43405 43.4993C6.59269 43.9896 5.99079 44.591 5.49946 45.434ZM9.3962 44.3412C9.39719 44.3412 9.39719 44.3412 9.3962 44.3412H9.39818H9.3962Z" fill="#37C8DC"/>
<path d="M78.7585 0.907085C78.5783 0.363918 78.0727 0 77.5 0C76.9272 0 76.4216 0.364902 76.2414 0.908068C75.5511 2.99179 74.9907 3.5528 72.909 4.24059C72.3659 4.41984 72.001 4.92547 72 5.49826C71.999 6.07253 72.3639 6.57866 72.908 6.75939C74.9908 7.44723 75.5516 8.00817 76.2414 10.0929C76.4226 10.6351 76.9277 11 77.4995 11C78.0713 11 78.5779 10.6351 78.7581 10.0919C79.4483 8.00821 80.0088 7.4472 82.093 6.7584C82.6361 6.57817 83.001 6.07155 83 5.49727C82.999 4.92449 82.6351 4.41885 82.093 4.24059C80.0093 3.55275 79.4484 2.99082 78.7586 0.907058L78.7585 0.907085ZM77.4995 7.43396C77.0097 6.59106 76.4078 5.98961 75.5649 5.49927C76.4087 5.00943 77.0091 4.40751 77.4995 3.56458C77.9893 4.40748 78.5912 5.00893 79.4341 5.49927C78.5927 5.9896 77.9908 6.59102 77.4995 7.43396ZM81.3962 6.34121C81.3972 6.34121 81.3972 6.34121 81.3962 6.34121H81.3982H81.3962Z" fill="#37C8DC"/>
</svg>
