<svg width="114" height="110" viewBox="0 0 114 110" fill="none" xmlns="http://www.w3.org/2000/svg">
<path opacity="0.2" d="M105.449 86.6146L11.2688 101.804C3.88742 102.995 -1.64278 95.1872 1.9295 88.619L41.0675 16.6574C43.9682 11.324 51.2094 10.3338 55.4355 14.6927L110.478 71.4647C115.544 76.6902 112.634 85.4557 105.449 86.6146Z" fill="white"/>
<path d="M70.1446 70.3917V53.835C70.1389 49.946 68.7641 46.1833 66.2613 43.2062C63.7589 40.2296 60.2883 38.2285 56.4579 37.5542V33.461C56.4579 31.8674 55.6075 30.3948 54.2273 29.5978C52.8472 28.8007 51.1463 28.8007 49.7662 29.5978C48.386 30.3948 47.5356 31.8674 47.5356 33.461V37.5542C43.704 38.2289 40.232 40.2311 37.7293 43.2099C35.2265 46.1886 33.8525 49.9536 33.8489 53.844V70.4006C32.5669 70.7205 31.5247 71.6514 31.0627 72.8895C30.6008 74.1275 30.7781 75.5134 31.537 76.595C32.2962 77.6766 33.5392 78.3151 34.8606 78.3016H44.8131C45.1055 80.6578 46.5349 82.7208 48.6386 83.8226C50.7419 84.9239 53.2516 84.9239 55.3549 83.8226C57.4586 82.7209 58.888 80.6579 59.1804 78.3016H69.1329C70.4543 78.3151 71.6973 77.6766 72.4565 76.595C73.2154 75.5134 73.3928 74.1275 72.9308 72.8895C72.4689 71.6515 71.4266 70.7205 70.1447 70.4006L70.1446 70.3917ZM49.3757 33.4614C49.3757 32.5252 49.8755 31.6595 50.6865 31.1914C51.4975 30.7229 52.497 30.7229 53.308 31.1914C54.119 31.6595 54.6188 32.5252 54.6188 33.4614V37.3337C54.2784 37.3337 53.938 37.2877 53.5885 37.2877L50.4062 37.2881C50.0567 37.2881 49.7163 37.2881 49.3759 37.3341L49.3757 33.4614ZM35.6889 53.8445C35.6889 49.941 37.2394 46.1977 39.9993 43.4379C42.7592 40.678 46.5024 39.1275 50.4059 39.1275H53.5883C57.4918 39.1275 61.235 40.678 63.9949 43.4379C66.7548 46.1977 68.3053 49.941 68.3053 53.8445V70.254H35.6892L35.6889 53.8445ZM51.9975 82.7908C50.7225 82.7875 49.4894 82.3346 48.5153 81.5121C47.5409 80.6892 46.8884 79.5493 46.6716 78.2928H57.3236C57.1068 79.5493 56.4543 80.6892 55.4798 81.5121C54.5058 82.3346 53.2727 82.7875 51.9977 82.7908H51.9975ZM69.1334 76.4531H34.8616C34.0826 76.4531 33.3632 76.0376 32.9735 75.3633C32.5842 74.6887 32.5842 73.8576 32.9735 73.1833C33.3632 72.5086 34.0826 72.0931 34.8616 72.0931H69.1334C69.9123 72.0931 70.6318 72.5087 71.0214 73.1833C71.4107 73.8576 71.4107 74.6887 71.0214 75.3633C70.6318 76.0376 69.9123 76.4531 69.1334 76.4531ZM65.5461 53.8446C65.5461 54.3526 65.1342 54.7644 64.6263 54.7644C64.1183 54.7644 63.7064 54.3526 63.7064 53.8446C63.7069 51.8531 63.1201 49.9062 62.0187 48.2469C60.9174 46.588 59.3513 45.2908 57.5161 44.5175C57.0493 44.3191 56.8308 43.78 57.0287 43.3127C57.2271 42.8454 57.7662 42.6273 58.2335 42.8253C60.4012 43.7389 62.2512 45.2718 63.5521 47.2318C64.8525 49.1921 65.5465 51.492 65.5461 53.8445L65.5461 53.8446Z" fill="white"/>
<path d="M27.7837 62.4487C27.7008 62.5317 27.602 62.5976 27.493 62.6426C27.384 62.6876 27.2671 62.7108 27.149 62.7108C27.0309 62.7108 26.914 62.6876 26.805 62.6426C26.696 62.5976 26.5972 62.5317 26.5143 62.4487C25.8034 61.7474 25.2395 60.9146 24.8548 59.998C24.4701 59.0815 24.2721 58.0991 24.2721 57.1069C24.2721 56.1148 24.4701 55.1324 24.8548 54.2158C25.2395 53.2993 25.8034 52.4665 26.5143 51.7651C26.5979 51.6825 26.6972 51.617 26.8064 51.5723C26.9157 51.5276 27.0328 51.5045 27.1511 51.5045C27.2694 51.5045 27.3865 51.5274 27.4958 51.5721C27.6051 51.6167 27.7045 51.6822 27.7881 51.7647C27.8718 51.8473 27.9382 51.9453 27.9835 52.0531C28.0288 52.161 28.0521 52.2766 28.0522 52.3934C28.0522 52.5102 28.0289 52.6258 27.9837 52.7337C27.9385 52.8416 27.8722 52.9396 27.7885 53.0222C27.2447 53.5583 26.8132 54.195 26.5188 54.8958C26.2245 55.5966 26.073 56.3479 26.073 57.1065C26.073 57.8652 26.2245 58.6165 26.5188 59.3173C26.8132 60.0181 27.2447 60.6548 27.7885 61.1909C27.9555 61.359 28.0486 61.5853 28.0477 61.8208C28.0468 62.0562 27.9519 62.2818 27.7837 62.4487ZM24.5984 64.3336C24.7673 64.4998 24.8624 64.7253 24.8628 64.9607C24.8631 65.1961 24.7688 65.422 24.6004 65.5887C24.4321 65.7554 24.2036 65.8492 23.9651 65.8496C23.7267 65.85 23.4979 65.7568 23.329 65.5907C22.1989 64.4775 21.3022 63.1553 20.6903 61.6998C20.0784 60.2442 19.7631 58.6838 19.7627 57.1079C19.7622 55.532 20.0766 53.9715 20.6877 52.5156C21.2988 51.0597 22.1947 49.737 23.3242 48.6232C23.4072 48.5378 23.5066 48.4696 23.6167 48.4227C23.7268 48.3757 23.8452 48.3509 23.9651 48.3497C24.085 48.3484 24.204 48.3709 24.315 48.4156C24.426 48.4603 24.5268 48.5265 24.6116 48.6102C24.6964 48.6939 24.7634 48.7934 24.8088 48.903C24.8541 49.0126 24.8768 49.13 24.8756 49.2484C24.8743 49.3667 24.8492 49.4837 24.8016 49.5923C24.754 49.7009 24.6849 49.7991 24.5984 49.8811C23.6365 50.8297 22.8734 51.9562 22.3528 53.1961C21.8321 54.4361 21.5642 55.7651 21.5642 57.1073C21.5642 58.4496 21.8321 59.7786 22.3528 61.0185C22.8734 62.2585 23.6365 63.3849 24.5984 64.3336Z" fill="#37C8DC"/>
<path d="M75.2944 62.4487C75.3774 62.5317 75.4762 62.5976 75.5851 62.6426C75.6941 62.6876 75.811 62.7108 75.9291 62.7108C76.0472 62.7108 76.1642 62.6876 76.2731 62.6426C76.3821 62.5976 76.4809 62.5317 76.5639 62.4487C77.2747 61.7474 77.8386 60.9146 78.2233 59.998C78.608 59.0815 78.806 58.0991 78.806 57.1069C78.806 56.1148 78.608 55.1324 78.2233 54.2158C77.8386 53.2993 77.2747 52.4665 76.5639 51.7651C76.4802 51.6825 76.381 51.617 76.2717 51.5723C76.1624 51.5276 76.0453 51.5045 75.927 51.5045C75.8087 51.5045 75.6916 51.5274 75.5823 51.5721C75.473 51.6167 75.3737 51.6822 75.29 51.7647C75.2063 51.8473 75.1399 51.9453 75.0946 52.0531C75.0493 52.161 75.026 52.2766 75.026 52.3934C75.0259 52.5102 75.0492 52.6258 75.0944 52.7337C75.1396 52.8416 75.206 52.9396 75.2896 53.0222C75.8334 53.5583 76.2649 54.195 76.5593 54.8958C76.8537 55.5966 77.0052 56.3479 77.0052 57.1065C77.0052 57.8652 76.8537 58.6165 76.5593 59.3173C76.2649 60.0181 75.8334 60.6548 75.2896 61.1909C75.1227 61.359 75.0296 61.5853 75.0305 61.8208C75.0314 62.0562 75.1262 62.2818 75.2944 62.4487ZM78.4797 64.3336C78.3108 64.4998 78.2157 64.7253 78.2154 64.9607C78.215 65.1961 78.3093 65.422 78.4777 65.5887C78.646 65.7554 78.8746 65.8492 79.113 65.8496C79.3514 65.85 79.5803 65.7568 79.7491 65.5907C80.8792 64.4775 81.7759 63.1553 82.3878 61.6998C82.9998 60.2442 83.315 58.6838 83.3154 57.1079C83.3159 55.532 83.0016 53.9715 82.3904 52.5156C81.7793 51.0597 80.8834 49.737 79.754 48.6232C79.6709 48.5378 79.5715 48.4696 79.4614 48.4227C79.3514 48.3757 79.2329 48.3509 79.113 48.3497C78.9931 48.3484 78.8742 48.3709 78.7631 48.4156C78.6521 48.4603 78.5513 48.5265 78.4665 48.6102C78.3817 48.6939 78.3147 48.7934 78.2694 48.903C78.2241 49.0126 78.2013 49.13 78.2026 49.2484C78.2038 49.3667 78.2289 49.4837 78.2765 49.5923C78.3241 49.7009 78.3932 49.7991 78.4797 49.8811C79.4416 50.8297 80.2047 51.9562 80.7253 53.1961C81.246 54.4361 81.514 55.7651 81.514 57.1073C81.514 58.4496 81.246 59.7786 80.7253 61.0185C80.2047 62.2585 79.4416 63.3849 78.4797 64.3336Z" fill="#37C8DC"/>
</svg>
