<svg width="1587" height="577" viewBox="0 0 1587 577" fill="none" xmlns="http://www.w3.org/2000/svg">
<rect width="1587" height="577" fill="#7B32B5"/>
<mask id="mask0_175_168" style="mask-type:alpha" maskUnits="userSpaceOnUse" x="0" y="0" width="1587" height="577">
<rect width="1587" height="577" fill="url(#paint0_linear_175_168)"/>
</mask>
<g mask="url(#mask0_175_168)">
<g opacity="0.1">
<g clip-path="url(#clip0_175_168)">
<path d="M1016.88 0.131836H915.706V491.472H1016.88V0.131836Z" fill="#8A9DAE"/>
<path d="M1039.6 0.131836H938.432V491.472H1039.6V0.131836Z" fill="#D5E7F7"/>
<path d="M938.458 28.394L1039.6 28.394V0.000205994L938.458 0.000205994V28.394Z" fill="#8A9DAE"/>
<path d="M938.458 89.9751L1039.6 89.9751V61.5813L938.458 61.5813V89.9751Z" fill="#8A9DAE"/>
<path d="M938.458 151.55H1039.6V123.156L938.458 123.156V151.55Z" fill="#8A9DAE"/>
<path d="M938.458 213.125H1039.6V184.732H938.458V213.125Z" fill="#8A9DAE"/>
<path d="M938.458 274.707H1039.6V246.313H938.458V274.707Z" fill="#8A9DAE"/>
<path d="M938.458 336.281H1039.6V307.887H938.458V336.281Z" fill="#8A9DAE"/>
<path d="M938.458 397.87H1039.6V369.476H938.458V397.87Z" fill="#8A9DAE"/>
<path d="M938.458 459.445H1039.6V431.051H938.458V459.445Z" fill="#8A9DAE"/>
<path d="M1178.61 69.6523H1077.44V491.465H1178.61V69.6523Z" fill="#8A9DAE"/>
<path d="M1201.33 69.6523H1100.16V491.465H1201.33V69.6523Z" fill="#D5E7F7"/>
<path d="M1100.19 93.9185L1201.33 93.9185V69.547L1100.19 69.547V93.9185Z" fill="#8A9DAE"/>
<path d="M1100.19 146.79H1201.33V122.418L1100.19 122.418V146.79Z" fill="#8A9DAE"/>
<path d="M1100.19 199.647H1201.33V175.276H1100.19V199.647Z" fill="#8A9DAE"/>
<path d="M1100.19 252.512H1201.33V228.14H1100.19V252.512Z" fill="#8A9DAE"/>
<path d="M1100.19 305.382H1201.33V281.01H1100.19V305.382Z" fill="#8A9DAE"/>
<path d="M1100.19 358.246H1201.33V333.875H1100.19V358.246Z" fill="#8A9DAE"/>
<path d="M1100.19 411.111H1201.33V386.739H1100.19V411.111Z" fill="#8A9DAE"/>
<path d="M1100.19 463.975H1201.33V439.603H1100.19V463.975Z" fill="#8A9DAE"/>
<path d="M860.95 538.098H903.319V476.398H860.95V538.098Z" fill="#DCEAF9"/>
<path d="M873.891 392.232V563.525H425.127H422.07L307.567 562.423C307.468 562.252 307.356 562.054 307.217 561.823C307.033 561.494 306.808 561.105 306.557 560.663L306.247 560.188C305.904 559.581 305.521 558.869 305.091 558.111C304.57 557.161 303.982 556.073 303.335 554.867C300.925 550.356 297.73 544.105 294.092 536.337C292.894 533.788 291.66 531.073 290.387 528.194C289.879 527.047 289.371 525.886 288.856 524.692C288.354 523.545 287.852 522.365 287.35 521.165L287.297 521.046C286.954 520.222 286.598 519.391 286.248 518.534C285.898 517.676 285.521 516.786 285.152 515.896C283.276 511.28 281.362 506.414 279.454 501.264C279.401 501.132 279.355 500.987 279.302 500.855C278.052 497.483 276.81 494.006 275.578 490.423C274.918 488.445 274.257 486.467 273.557 484.423L273.439 484.04C273.141 483.137 272.851 482.234 272.554 481.324C272.31 480.552 272.065 479.787 271.828 479.016C271.326 477.42 270.826 475.809 270.329 474.182C269.669 472.099 269.061 469.975 268.44 467.832C267.604 464.918 266.785 461.955 265.984 458.943L265.271 456.227C264.571 453.503 263.878 450.747 263.211 447.958C262.993 447.061 262.782 446.164 262.551 445.261C262.412 444.707 262.287 444.147 262.161 443.593C261.153 439.197 260.198 434.697 259.296 430.095C258.31 425.048 257.408 419.909 256.589 414.678C255.836 409.842 255.163 404.939 254.568 399.967C254.014 395.276 253.543 390.526 253.155 385.717C252.238 374.507 251.835 362.935 252 351.177C252.275 330.005 254.646 308.911 259.078 288.205C259.243 287.427 259.415 286.655 259.586 285.87C260.731 280.784 262.016 275.689 263.442 270.585C264.53 266.686 265.705 262.789 266.968 258.894C267.892 256.072 268.859 253.245 269.867 250.414C272.164 244.014 274.722 237.611 277.539 231.206H279.936V225.931C295.247 192.961 317.815 160.254 349.923 129.342L351.726 127.614H353.601V193.139H411.703V86.2958H475.749V155.605H490.36V72.8901H554.405V228.001H635.439V318.465H665.712V341.267H735.257V302.026H775.189V195.367H824.55V392.232H873.891Z" fill="#D5E7F7"/>
<path d="M490.399 99.1343L554.504 99.1343V83.3284H490.399V99.1343Z" fill="#8A9DAE"/>
<path d="M490.399 128.834H554.504V113.028H490.399V128.834Z" fill="#8A9DAE"/>
<path d="M490.399 155.553H554.504V139.747H490.399V155.553Z" fill="#8A9DAE"/>
<path d="M411.736 155.553H475.841V139.747H411.736V155.553Z" fill="#8A9DAE"/>
<path d="M411.736 128.834H475.841V113.028H411.736V128.834Z" fill="#8A9DAE"/>
<path d="M411.736 102.161L475.841 102.161V86.3553H411.736V102.161Z" fill="#8A9DAE"/>
<path d="M411.716 181.454L554.504 181.454V165.648L411.716 165.648V181.454Z" fill="#8A9DAE"/>
<path d="M411.716 207.362L554.504 207.362V191.556L411.716 191.556V207.362Z" fill="#8A9DAE"/>
<path d="M774.794 219.785H824.551V195.387H774.794V219.785Z" fill="#8A9DAE"/>
<path d="M774.794 256.072H824.551V231.674H774.794V256.072Z" fill="#8A9DAE"/>
<path d="M774.794 292.359H824.551V267.962H774.794V292.359Z" fill="#8A9DAE"/>
<path d="M774.794 330.393H824.551V305.995H774.794V330.393Z" fill="#8A9DAE"/>
<path d="M774.794 367.254H824.551V342.856H774.794V367.254Z" fill="#8A9DAE"/>
<path d="M774.794 404.108H824.551V379.71H774.794V404.108Z" fill="#8A9DAE"/>
<path d="M774.794 442.669H824.551V418.272H774.794V442.669Z" fill="#8A9DAE"/>
<path d="M411.716 226.9L554.504 226.9V216.864L411.716 216.864V226.9Z" fill="#8A9DAE"/>
<path d="M775.486 195.381H757.138V302.013H775.486V195.381Z" fill="#8A9DAE"/>
<path d="M735.316 302.013H698.414V341.26H735.316V302.013Z" fill="#8A9DAE"/>
<path d="M411.736 86.3486V102.174V165.661V193.079H399V87.6081L400.717 86.3486H411.736Z" fill="#8A9DAE"/>
<path d="M490.4 72.8638H482.582V155.553H490.4V72.8638Z" fill="#8A9DAE"/>
<g opacity="0.8">
<path opacity="0.8" d="M611.393 258.854H622.254V243.563H611.393V258.854Z" fill="#8A9DAE"/>
<path opacity="0.8" d="M591.089 258.854H601.95V243.563H591.089V258.854Z" fill="#8A9DAE"/>
<path opacity="0.8" d="M571.229 258.854H582.09V243.563H571.229V258.854Z" fill="#8A9DAE"/>
<path opacity="0.8" d="M552.404 258.854H563.266V243.563H552.404V258.854Z" fill="#8A9DAE"/>
<path opacity="0.8" d="M533.218 258.854H544.079V243.563H533.218V258.854Z" fill="#8A9DAE"/>
<path opacity="0.8" d="M513.806 258.854H524.667V243.563H513.806V258.854Z" fill="#8A9DAE"/>
<path opacity="0.8" d="M493.496 258.854H504.357V243.563H493.496V258.854Z" fill="#8A9DAE"/>
<path opacity="0.8" d="M473.636 258.854H484.497V243.563H473.636V258.854Z" fill="#8A9DAE"/>
<path opacity="0.8" d="M454.818 258.854H465.68V243.563H454.818V258.854Z" fill="#8A9DAE"/>
<path opacity="0.8" d="M435.625 258.854H446.486V243.563H435.625V258.854Z" fill="#8A9DAE"/>
<path opacity="0.8" d="M415.632 258.854H426.493V243.563H415.632V258.854Z" fill="#8A9DAE"/>
<path opacity="0.8" d="M395.322 258.854H406.184V243.563H395.322V258.854Z" fill="#8A9DAE"/>
<path opacity="0.8" d="M375.462 258.854H386.323V243.563H375.462V258.854Z" fill="#8A9DAE"/>
<path opacity="0.8" d="M356.631 258.854H367.492V243.563H356.631V258.854Z" fill="#8A9DAE"/>
<path opacity="0.8" d="M337.45 258.854H348.312V243.563H337.45V258.854Z" fill="#8A9DAE"/>
<path opacity="0.8" d="M318.039 258.854H328.9V243.563H318.039V258.854Z" fill="#8A9DAE"/>
<path opacity="0.8" d="M297.73 258.854H308.591V243.563H297.73V258.854Z" fill="#8A9DAE"/>
<path opacity="0.8" d="M277.875 258.854H288.736V243.563H277.875V258.854Z" fill="#8A9DAE"/>
<path opacity="0.8" d="M269.933 250.375V258.841H267.034C267.941 256.028 268.907 253.206 269.933 250.375Z" fill="#8A9DAE"/>
<path opacity="0.8" d="M611.393 285.831H622.254V270.539H611.393V285.831Z" fill="#8A9DAE"/>
<path opacity="0.8" d="M591.089 285.831H601.95V270.539H591.089V285.831Z" fill="#8A9DAE"/>
<path opacity="0.8" d="M571.229 285.831H582.09V270.539H571.229V285.831Z" fill="#8A9DAE"/>
<path opacity="0.8" d="M552.404 285.831H563.266V270.539H552.404V285.831Z" fill="#8A9DAE"/>
<path opacity="0.8" d="M533.218 285.831H544.079V270.539H533.218V285.831Z" fill="#8A9DAE"/>
<path opacity="0.8" d="M513.806 285.831H524.667V270.539H513.806V285.831Z" fill="#8A9DAE"/>
<path opacity="0.8" d="M493.496 285.831H504.357V270.539H493.496V285.831Z" fill="#8A9DAE"/>
<path opacity="0.8" d="M473.636 285.831H484.497V270.539H473.636V285.831Z" fill="#8A9DAE"/>
<path opacity="0.8" d="M454.818 285.831H465.68V270.539H454.818V285.831Z" fill="#8A9DAE"/>
<path opacity="0.8" d="M435.625 285.831H446.486V270.539H435.625V285.831Z" fill="#8A9DAE"/>
<path opacity="0.8" d="M415.632 285.831H426.493V270.539H415.632V285.831Z" fill="#8A9DAE"/>
<path opacity="0.8" d="M395.322 285.831H406.184V270.539H395.322V285.831Z" fill="#8A9DAE"/>
<path opacity="0.8" d="M375.462 285.831H386.323V270.539H375.462V285.831Z" fill="#8A9DAE"/>
<path opacity="0.8" d="M356.631 285.831H367.492V270.539H356.631V285.831Z" fill="#8A9DAE"/>
<path opacity="0.8" d="M337.45 285.831H348.312V270.539H337.45V285.831Z" fill="#8A9DAE"/>
<path opacity="0.8" d="M318.039 285.831H328.9V270.539H318.039V285.831Z" fill="#8A9DAE"/>
<path opacity="0.8" d="M297.73 285.831H308.591V270.539H297.73V285.831Z" fill="#8A9DAE"/>
<path opacity="0.8" d="M277.875 285.831H288.736V270.539H277.875V285.831Z" fill="#8A9DAE"/>
<path opacity="0.8" d="M269.933 270.545V285.83H259.626C260.77 280.744 262.056 275.649 263.482 270.545H269.933Z" fill="#8A9DAE"/>
<path opacity="0.8" d="M611.393 312.398H622.254V297.107H611.393V312.398Z" fill="#8A9DAE"/>
<path opacity="0.8" d="M591.089 312.398H601.95V297.107H591.089V312.398Z" fill="#8A9DAE"/>
<path opacity="0.8" d="M571.229 312.398H582.09V297.107H571.229V312.398Z" fill="#8A9DAE"/>
<path opacity="0.8" d="M552.404 312.398H563.266V297.107H552.404V312.398Z" fill="#8A9DAE"/>
<path opacity="0.8" d="M533.218 312.398H544.079V297.107H533.218V312.398Z" fill="#8A9DAE"/>
<path opacity="0.8" d="M513.806 312.398H524.667V297.107H513.806V312.398Z" fill="#8A9DAE"/>
<path opacity="0.8" d="M493.496 312.398H504.357V297.107H493.496V312.398Z" fill="#8A9DAE"/>
<path opacity="0.8" d="M473.636 312.398H484.497V297.107H473.636V312.398Z" fill="#8A9DAE"/>
<path opacity="0.8" d="M454.818 312.398H465.68V297.107H454.818V312.398Z" fill="#8A9DAE"/>
<path opacity="0.8" d="M435.625 312.398H446.486V297.107H435.625V312.398Z" fill="#8A9DAE"/>
<path opacity="0.8" d="M415.632 312.398H426.493V297.107H415.632V312.398Z" fill="#8A9DAE"/>
<path opacity="0.8" d="M395.322 312.398H406.184V297.107H395.322V312.398Z" fill="#8A9DAE"/>
<path opacity="0.8" d="M375.462 312.398H386.323V297.107H375.462V312.398Z" fill="#8A9DAE"/>
<path opacity="0.8" d="M356.631 312.398H367.492V297.107H356.631V312.398Z" fill="#8A9DAE"/>
<path opacity="0.8" d="M337.45 312.398H348.312V297.107H337.45V312.398Z" fill="#8A9DAE"/>
<path opacity="0.8" d="M318.039 312.398H328.9V297.107H318.039V312.398Z" fill="#8A9DAE"/>
<path opacity="0.8" d="M297.73 312.398H308.591V297.107H297.73V312.398Z" fill="#8A9DAE"/>
<path opacity="0.8" d="M277.875 312.398H288.736V297.107H277.875V312.398Z" fill="#8A9DAE"/>
<path opacity="0.8" d="M259.045 312.398H269.906V297.107H259.045V312.398Z" fill="#8A9DAE"/>
<path opacity="0.8" d="M611.393 340.634H622.254V325.342H611.393V340.634Z" fill="#8A9DAE"/>
<path opacity="0.8" d="M591.089 340.634H601.95V325.342H591.089V340.634Z" fill="#8A9DAE"/>
<path opacity="0.8" d="M571.229 340.634H582.09V325.342H571.229V340.634Z" fill="#8A9DAE"/>
<path opacity="0.8" d="M552.404 340.634H563.266V325.342H552.404V340.634Z" fill="#8A9DAE"/>
<path opacity="0.8" d="M533.218 340.634H544.079V325.342H533.218V340.634Z" fill="#8A9DAE"/>
<path opacity="0.8" d="M513.806 340.634H524.667V325.342H513.806V340.634Z" fill="#8A9DAE"/>
<path opacity="0.8" d="M493.496 340.634H504.357V325.342H493.496V340.634Z" fill="#8A9DAE"/>
<path opacity="0.8" d="M473.636 340.634H484.497V325.342H473.636V340.634Z" fill="#8A9DAE"/>
<path opacity="0.8" d="M454.818 340.634H465.68V325.342H454.818V340.634Z" fill="#8A9DAE"/>
<path opacity="0.8" d="M435.625 340.634H446.486V325.342H435.625V340.634Z" fill="#8A9DAE"/>
<path opacity="0.8" d="M415.632 340.634H426.493V325.342H415.632V340.634Z" fill="#8A9DAE"/>
<path opacity="0.8" d="M395.322 340.634H406.184V325.342H395.322V340.634Z" fill="#8A9DAE"/>
<path opacity="0.8" d="M375.462 340.634H386.323V325.342H375.462V340.634Z" fill="#8A9DAE"/>
<path opacity="0.8" d="M356.631 340.634H367.492V325.342H356.631V340.634Z" fill="#8A9DAE"/>
<path opacity="0.8" d="M337.45 340.634H348.312V325.342H337.45V340.634Z" fill="#8A9DAE"/>
<path opacity="0.8" d="M318.039 340.634H328.9V325.342H318.039V340.634Z" fill="#8A9DAE"/>
<path opacity="0.8" d="M297.73 340.634H308.591V325.342H297.73V340.634Z" fill="#8A9DAE"/>
<path opacity="0.8" d="M277.875 340.634H288.736V325.342H277.875V340.634Z" fill="#8A9DAE"/>
<path opacity="0.8" d="M259.045 340.634H269.906V325.342H259.045V340.634Z" fill="#8A9DAE"/>
<path opacity="0.8" d="M611.393 367.609H622.254V352.318H611.393V367.609Z" fill="#8A9DAE"/>
<path opacity="0.8" d="M591.089 367.609H601.95V352.318H591.089V367.609Z" fill="#8A9DAE"/>
<path opacity="0.8" d="M571.229 367.609H582.09V352.318H571.229V367.609Z" fill="#8A9DAE"/>
<path opacity="0.8" d="M552.404 367.609H563.266V352.318H552.404V367.609Z" fill="#8A9DAE"/>
<path opacity="0.8" d="M533.218 367.609H544.079V352.318H533.218V367.609Z" fill="#8A9DAE"/>
<path opacity="0.8" d="M513.806 367.609H524.667V352.318H513.806V367.609Z" fill="#8A9DAE"/>
<path opacity="0.8" d="M493.496 367.609H504.357V352.318H493.496V367.609Z" fill="#8A9DAE"/>
<path opacity="0.8" d="M473.636 367.61H484.497V352.318H473.636V367.61Z" fill="#8A9DAE"/>
<path opacity="0.8" d="M454.818 367.61H465.68V352.318H454.818V367.61Z" fill="#8A9DAE"/>
<path opacity="0.8" d="M435.625 367.609H446.486V352.318H435.625V367.609Z" fill="#8A9DAE"/>
<path opacity="0.8" d="M415.632 367.609H426.493V352.318H415.632V367.609Z" fill="#8A9DAE"/>
<path opacity="0.8" d="M395.322 367.61H406.184V352.318H395.322V367.61Z" fill="#8A9DAE"/>
<path opacity="0.8" d="M375.462 367.609H386.323V352.318H375.462V367.609Z" fill="#8A9DAE"/>
<path opacity="0.8" d="M356.631 367.609H367.492V352.318H356.631V367.609Z" fill="#8A9DAE"/>
<path opacity="0.8" d="M337.45 367.609H348.312V352.318H337.45V367.609Z" fill="#8A9DAE"/>
<path opacity="0.8" d="M318.039 367.61H328.9V352.318H318.039V367.61Z" fill="#8A9DAE"/>
<path opacity="0.8" d="M297.73 367.61H308.591V352.318H297.73V367.61Z" fill="#8A9DAE"/>
<path opacity="0.8" d="M277.875 367.609H288.736V352.318H277.875V367.609Z" fill="#8A9DAE"/>
<path opacity="0.8" d="M259.045 367.61H269.906V352.318H259.045V367.61Z" fill="#8A9DAE"/>
<path opacity="0.8" d="M611.393 394.17H622.254V378.879H611.393V394.17Z" fill="#8A9DAE"/>
<path opacity="0.8" d="M591.089 394.17H601.95V378.879H591.089V394.17Z" fill="#8A9DAE"/>
<path opacity="0.8" d="M571.229 394.17H582.09V378.879H571.229V394.17Z" fill="#8A9DAE"/>
<path opacity="0.8" d="M552.404 394.17H563.266V378.879H552.404V394.17Z" fill="#8A9DAE"/>
<path opacity="0.8" d="M533.218 394.17H544.079V378.879H533.218V394.17Z" fill="#8A9DAE"/>
<path opacity="0.8" d="M513.806 394.17H524.667V378.879H513.806V394.17Z" fill="#8A9DAE"/>
<path opacity="0.8" d="M493.496 394.17H504.357V378.879H493.496V394.17Z" fill="#8A9DAE"/>
<path opacity="0.8" d="M473.636 394.17H484.497V378.879H473.636V394.17Z" fill="#8A9DAE"/>
<path opacity="0.8" d="M454.818 394.17H465.68V378.879H454.818V394.17Z" fill="#8A9DAE"/>
<path opacity="0.8" d="M435.625 394.17H446.486V378.879H435.625V394.17Z" fill="#8A9DAE"/>
<path opacity="0.8" d="M415.632 394.17H426.493V378.879H415.632V394.17Z" fill="#8A9DAE"/>
<path opacity="0.8" d="M395.322 394.17H406.184V378.879H395.322V394.17Z" fill="#8A9DAE"/>
<path opacity="0.8" d="M375.462 394.17H386.323V378.879H375.462V394.17Z" fill="#8A9DAE"/>
<path opacity="0.8" d="M356.631 394.17H367.492V378.879H356.631V394.17Z" fill="#8A9DAE"/>
<path opacity="0.8" d="M337.45 394.17H348.312V378.879H337.45V394.17Z" fill="#8A9DAE"/>
<path opacity="0.8" d="M318.039 394.17H328.9V378.879H318.039V394.17Z" fill="#8A9DAE"/>
<path opacity="0.8" d="M297.73 394.17H308.591V378.879H297.73V394.17Z" fill="#8A9DAE"/>
<path opacity="0.8" d="M277.875 394.17H288.736V378.879H277.875V394.17Z" fill="#8A9DAE"/>
<path opacity="0.8" d="M259.045 394.17H269.906V378.879H259.045V394.17Z" fill="#8A9DAE"/>
</g>
<path d="M446.67 562.423H698.414V426.791H446.67V562.423Z" fill="#8A9DAE"/>
<path d="M637.558 562.417H889.302V494.598H637.558V562.417Z" fill="#8A9DAE"/>
<path d="M426.486 447.918V562.424H307.567C307.468 562.252 307.356 562.054 307.217 561.824C307.032 561.494 306.808 561.105 306.557 560.663L306.247 560.188C305.903 559.582 305.52 558.869 305.091 558.111C304.57 557.162 303.982 556.074 303.335 554.867C300.925 550.357 297.729 544.105 294.091 536.338C292.894 533.788 291.659 531.073 290.387 528.194C289.879 527.047 289.37 525.886 288.855 524.693C288.354 523.545 287.852 522.365 287.35 521.165L287.297 521.046C286.954 520.222 286.597 519.391 286.247 518.534C285.897 517.677 285.521 516.786 285.151 515.896C283.276 511.28 281.361 506.414 279.453 501.264C279.4 501.132 279.354 500.987 279.301 500.855C278.051 497.484 276.81 494.006 275.578 490.423C274.917 488.445 274.257 486.467 273.557 484.423L273.438 484.041C273.141 483.137 272.851 482.234 272.554 481.324C272.309 480.552 272.065 479.787 271.827 479.016C271.326 477.42 270.826 475.809 270.329 474.182C269.668 472.099 269.061 469.975 268.44 467.832C267.604 464.918 266.785 461.955 265.984 458.944L265.271 456.227C264.571 453.504 263.878 450.747 263.211 447.958L426.486 447.918Z" fill="#8A9DAE"/>
<path d="M634.693 467.793H681.598V442.67H634.693V467.793Z" fill="#D5E7F7"/>
<path d="M574.491 467.793H621.396V442.67H574.491V467.793Z" fill="#D5E7F7"/>
<path d="M515.43 467.793H562.335V442.67H515.43V467.793Z" fill="#D5E7F7"/>
<path d="M457.5 467.793H504.404V442.67H457.5V467.793Z" fill="#D5E7F7"/>
<path d="M425.12 563.591H449.285V426.791H425.12V563.591Z" fill="#617585"/>
<path d="M813.339 195.381H814.646V184.764H813.339V195.381Z" fill="#DCEAF9"/>
<path d="M766.322 195.381H767.629V184.764H766.322V195.381Z" fill="#DCEAF9"/>
<path d="M254.608 399.954C255.198 404.926 255.872 409.829 256.629 414.665C257.443 419.892 258.345 425.031 259.336 430.082C260.216 434.662 261.171 439.162 262.201 443.58C262.327 444.134 262.452 444.694 262.591 445.248C262.796 446.151 263.007 447.048 263.251 447.945C263.911 450.734 264.611 453.49 265.311 456.214L266.024 458.93C266.825 461.946 267.644 464.909 268.48 467.819C269.101 469.962 269.728 472.086 270.369 474.169C270.866 475.8 271.366 477.411 271.868 479.003C272.105 479.774 272.35 480.539 272.594 481.311C272.891 482.221 273.182 483.124 273.479 484.027L273.597 484.41C274.258 486.441 274.918 488.439 275.618 490.41C276.85 493.998 278.092 497.475 279.342 500.842C279.395 500.974 279.441 501.119 279.494 501.251C281.402 506.401 283.316 511.287 285.192 515.883C285.561 516.773 285.925 517.657 286.288 518.521C286.651 519.384 286.994 520.209 287.337 521.033L287.39 521.152V399.954H254.608Z" fill="#D5E7F7"/>
<path d="M287.364 445.222V521.132L287.311 521.013C286.968 520.189 286.611 519.358 286.261 518.501C285.911 517.644 285.535 516.754 285.165 515.863C283.29 511.248 281.375 506.381 279.467 501.231C279.414 501.099 279.368 500.954 279.315 500.822C278.065 497.451 276.824 493.973 275.591 490.391C274.931 488.413 274.271 486.434 273.571 484.39L273.452 484.008C273.155 483.104 272.864 482.201 272.567 481.291C272.323 480.519 272.079 479.755 271.841 478.983C271.339 477.387 270.84 475.776 270.342 474.15C269.682 472.066 269.075 469.943 268.454 467.8C267.618 464.885 266.799 461.922 265.998 458.911L265.285 456.194C264.585 453.471 263.892 450.714 263.225 447.925C263.007 447.028 262.796 446.132 262.564 445.228L287.364 445.222Z" fill="#D5E7F7"/>
<path d="M287.363 430.056V467.793H268.453C267.617 464.879 266.798 461.916 265.997 458.905L265.284 456.188C264.584 453.464 263.891 450.708 263.224 447.919C263.006 447.022 262.795 446.125 262.564 445.222C262.425 444.668 262.3 444.108 262.174 443.554C261.166 439.158 260.211 434.658 259.309 430.056H287.363Z" fill="#8A9DAE"/>
<path d="M275.591 478.976V490.384C274.931 488.406 274.271 486.427 273.571 484.383L273.452 484.001C273.155 483.097 272.864 482.194 272.567 481.284C272.323 480.512 272.079 479.748 271.841 478.976H275.591Z" fill="#8A9DAE"/>
<path d="M266.717 453.55H274.178V440.658H266.717V453.55Z" fill="#617585"/>
<path d="M841.651 561.315H1014.5V445.221H841.651V561.315Z" fill="#D5E7F7"/>
<path d="M841.651 467.793H1014.5V430.062H841.651V467.793Z" fill="#8A9DAE"/>
<path d="M993.854 491.472H1002.73V478.976H993.854V491.472Z" fill="#8A9DAE"/>
<path d="M977.249 491.472H986.129V478.976H977.249V491.472Z" fill="#8A9DAE"/>
<path d="M961.02 491.472H969.9V478.976H961.02V491.472Z" fill="#8A9DAE"/>
<path d="M945.642 491.472H954.516V478.976H945.642V491.472Z" fill="#8A9DAE"/>
<path d="M929.954 491.472H938.835V478.976H929.954V491.472Z" fill="#8A9DAE"/>
<path d="M914.088 491.472H922.969V478.976H914.088V491.472Z" fill="#8A9DAE"/>
<path d="M897.489 491.472H906.369V478.976H897.489V491.472Z" fill="#8A9DAE"/>
<path d="M881.26 491.472H890.141V478.976H881.26V491.472Z" fill="#8A9DAE"/>
<path d="M865.87 491.472H874.75V478.976H865.87V491.472Z" fill="#8A9DAE"/>
<path d="M850.194 491.472H859.068V478.976H850.194V491.472Z" fill="#8A9DAE"/>
<path d="M993.854 513.522H1002.73V501.026H993.854V513.522Z" fill="#8A9DAE"/>
<path d="M977.249 513.522H986.129V501.026H977.249V513.522Z" fill="#8A9DAE"/>
<path d="M961.019 513.522H969.899V501.026H961.019V513.522Z" fill="#8A9DAE"/>
<path d="M945.642 513.522H954.516V501.026H945.642V513.522Z" fill="#8A9DAE"/>
<path d="M929.954 513.522H938.835V501.026H929.954V513.522Z" fill="#8A9DAE"/>
<path d="M914.088 513.522H922.969V501.026H914.088V513.522Z" fill="#8A9DAE"/>
<path d="M897.489 513.522H906.369V501.026H897.489V513.522Z" fill="#8A9DAE"/>
<path d="M881.26 513.522H890.141V501.026H881.26V513.522Z" fill="#8A9DAE"/>
<path d="M865.87 513.522H874.75V501.026H865.87V513.522Z" fill="#8A9DAE"/>
<path d="M850.194 513.522H859.068V501.026H850.194V513.522Z" fill="#8A9DAE"/>
<path d="M993.854 535.23H1002.73V522.734H993.854V535.23Z" fill="#8A9DAE"/>
<path d="M977.249 535.23H986.129V522.734H977.249V535.23Z" fill="#8A9DAE"/>
<path d="M961.02 535.23H969.9V522.734H961.02V535.23Z" fill="#8A9DAE"/>
<path d="M945.642 535.23H954.516V522.734H945.642V535.23Z" fill="#8A9DAE"/>
<path d="M929.954 535.23H938.835V522.734H929.954V535.23Z" fill="#8A9DAE"/>
<path d="M914.088 535.23H922.969V522.734H914.088V535.23Z" fill="#8A9DAE"/>
<path d="M897.489 535.23H906.369V522.734H897.489V535.23Z" fill="#8A9DAE"/>
<path d="M881.26 535.23H890.141V522.734H881.26V535.23Z" fill="#8A9DAE"/>
<path d="M865.87 535.23H874.75V522.734H865.87V535.23Z" fill="#8A9DAE"/>
<path d="M850.194 535.23H859.068V522.734H850.194V535.23Z" fill="#8A9DAE"/>
<path d="M993.855 453.55H1001.32V440.658H993.855V453.55Z" fill="#617585"/>
<path d="M919.8 453.55H927.261V440.658H919.8V453.55Z" fill="#617585"/>
<path d="M860.878 453.55H868.339V440.658H860.878V453.55Z" fill="#617585"/>
<path d="M1025.36 561.315H1198.21V445.221H1025.36V561.315Z" fill="#D5E7F7"/>
<path d="M1025.36 467.793H1198.21V430.062H1025.36V467.793Z" fill="#8A9DAE"/>
<path d="M1177.56 491.472H1186.45V478.976H1177.56V491.472Z" fill="#8A9DAE"/>
<path d="M1160.96 491.472H1169.84V478.976H1160.96V491.472Z" fill="#8A9DAE"/>
<path d="M1144.74 491.472H1153.61V478.976H1144.74V491.472Z" fill="#8A9DAE"/>
<path d="M1129.35 491.472H1138.22V478.976H1129.35V491.472Z" fill="#8A9DAE"/>
<path d="M1113.66 491.472H1122.54V478.976H1113.66V491.472Z" fill="#8A9DAE"/>
<path d="M1097.8 491.472H1106.68V478.976H1097.8V491.472Z" fill="#8A9DAE"/>
<path d="M1081.2 491.472H1090.07V478.976H1081.2V491.472Z" fill="#8A9DAE"/>
<path d="M1064.97 491.472H1073.84V478.976H1064.97V491.472Z" fill="#8A9DAE"/>
<path d="M1049.58 491.472H1058.46V478.976H1049.58V491.472Z" fill="#8A9DAE"/>
<path d="M1033.9 491.472H1042.78V478.976H1033.9V491.472Z" fill="#8A9DAE"/>
<path d="M1177.56 513.522H1186.45V501.026H1177.56V513.522Z" fill="#8A9DAE"/>
<path d="M1160.96 513.522H1169.84V501.026H1160.96V513.522Z" fill="#8A9DAE"/>
<path d="M1144.74 513.522H1153.61V501.026H1144.74V513.522Z" fill="#8A9DAE"/>
<path d="M1129.35 513.522H1138.22V501.026H1129.35V513.522Z" fill="#8A9DAE"/>
<path d="M1113.66 513.522H1122.54V501.026H1113.66V513.522Z" fill="#8A9DAE"/>
<path d="M1097.8 513.522H1106.68V501.026H1097.8V513.522Z" fill="#8A9DAE"/>
<path d="M1081.2 513.522H1090.07V501.026H1081.2V513.522Z" fill="#8A9DAE"/>
<path d="M1064.97 513.522H1073.84V501.026H1064.97V513.522Z" fill="#8A9DAE"/>
<path d="M1049.58 513.522H1058.46V501.026H1049.58V513.522Z" fill="#8A9DAE"/>
<path d="M1033.9 513.522H1042.78V501.026H1033.9V513.522Z" fill="#8A9DAE"/>
<path d="M1177.56 535.23H1186.45V522.734H1177.56V535.23Z" fill="#8A9DAE"/>
<path d="M1160.96 535.23H1169.84V522.734H1160.96V535.23Z" fill="#8A9DAE"/>
<path d="M1144.74 535.23H1153.61V522.734H1144.74V535.23Z" fill="#8A9DAE"/>
<path d="M1129.35 535.23H1138.22V522.734H1129.35V535.23Z" fill="#8A9DAE"/>
<path d="M1113.66 535.23H1122.54V522.734H1113.66V535.23Z" fill="#8A9DAE"/>
<path d="M1097.8 535.23H1106.68V522.734H1097.8V535.23Z" fill="#8A9DAE"/>
<path d="M1081.2 535.23H1090.07V522.734H1081.2V535.23Z" fill="#8A9DAE"/>
<path d="M1064.97 535.23H1073.84V522.734H1064.97V535.23Z" fill="#8A9DAE"/>
<path d="M1049.58 535.23H1058.46V522.734H1049.58V535.23Z" fill="#8A9DAE"/>
<path d="M1033.9 535.23H1042.78V522.734H1033.9V535.23Z" fill="#8A9DAE"/>
<path d="M1177.56 453.55H1185.03V440.658H1177.56V453.55Z" fill="#617585"/>
<path d="M1103.5 453.55H1110.96V440.658H1103.5V453.55Z" fill="#617585"/>
<path d="M1044.59 453.55H1052.05V440.658H1044.59V453.55Z" fill="#617585"/>
<path d="M1387.15 561.315H1560V445.221H1387.15V561.315Z" fill="#D5E7F7"/>
<path d="M1387.15 467.793H1560V430.062H1387.15V467.793Z" fill="#8A9DAE"/>
<path d="M1539.35 491.472H1548.23V478.976H1539.35V491.472Z" fill="#8A9DAE"/>
<path d="M1522.75 491.472H1531.63V478.976H1522.75V491.472Z" fill="#8A9DAE"/>
<path d="M1506.53 491.472H1515.4V478.976H1506.53V491.472Z" fill="#8A9DAE"/>
<path d="M1491.13 491.472H1500.02V478.976H1491.13V491.472Z" fill="#8A9DAE"/>
<path d="M1475.45 491.472H1484.33V478.976H1475.45V491.472Z" fill="#8A9DAE"/>
<path d="M1459.59 491.472H1468.47V478.976H1459.59V491.472Z" fill="#8A9DAE"/>
<path d="M1442.99 491.472H1451.87V478.976H1442.99V491.472Z" fill="#8A9DAE"/>
<path d="M1426.76 491.472H1435.64V478.976H1426.76V491.472Z" fill="#8A9DAE"/>
<path d="M1411.37 491.472H1420.25V478.976H1411.37V491.472Z" fill="#8A9DAE"/>
<path d="M1395.69 491.472H1404.57V478.976H1395.69V491.472Z" fill="#8A9DAE"/>
<path d="M1539.35 513.522H1548.23V501.026H1539.35V513.522Z" fill="#8A9DAE"/>
<path d="M1522.75 513.522H1531.63V501.026H1522.75V513.522Z" fill="#8A9DAE"/>
<path d="M1506.53 513.522H1515.4V501.026H1506.53V513.522Z" fill="#8A9DAE"/>
<path d="M1491.13 513.522H1500.02V501.026H1491.13V513.522Z" fill="#8A9DAE"/>
<path d="M1475.45 513.522H1484.33V501.026H1475.45V513.522Z" fill="#8A9DAE"/>
<path d="M1459.59 513.522H1468.47V501.026H1459.59V513.522Z" fill="#8A9DAE"/>
<path d="M1442.99 513.522H1451.87V501.026H1442.99V513.522Z" fill="#8A9DAE"/>
<path d="M1426.76 513.522H1435.64V501.026H1426.76V513.522Z" fill="#8A9DAE"/>
<path d="M1411.37 513.522H1420.25V501.026H1411.37V513.522Z" fill="#8A9DAE"/>
<path d="M1395.69 513.522H1404.57V501.026H1395.69V513.522Z" fill="#8A9DAE"/>
<path d="M1539.35 535.23H1548.23V522.734H1539.35V535.23Z" fill="#8A9DAE"/>
<path d="M1522.75 535.23H1531.63V522.734H1522.75V535.23Z" fill="#8A9DAE"/>
<path d="M1506.53 535.23H1515.4V522.734H1506.53V535.23Z" fill="#8A9DAE"/>
<path d="M1491.13 535.23H1500.02V522.734H1491.13V535.23Z" fill="#8A9DAE"/>
<path d="M1475.45 535.23H1484.33V522.734H1475.45V535.23Z" fill="#8A9DAE"/>
<path d="M1459.59 535.23H1468.47V522.734H1459.59V535.23Z" fill="#8A9DAE"/>
<path d="M1442.99 535.23H1451.87V522.734H1442.99V535.23Z" fill="#8A9DAE"/>
<path d="M1426.76 535.23H1435.64V522.734H1426.76V535.23Z" fill="#8A9DAE"/>
<path d="M1411.37 535.23H1420.25V522.734H1411.37V535.23Z" fill="#8A9DAE"/>
<path d="M1395.69 535.23H1404.57V522.734H1395.69V535.23Z" fill="#8A9DAE"/>
<path d="M1539.35 453.55H1546.81V440.658H1539.35V453.55Z" fill="#617585"/>
<path d="M1465.29 453.55H1472.75V440.658H1465.29V453.55Z" fill="#617585"/>
<path d="M1406.38 453.55H1413.84V440.658H1406.38V453.55Z" fill="#617585"/>
</g>
</g>
<ellipse cx="1113" cy="451.5" rx="320" ry="319.5" fill="white" fill-opacity="0.22"/>
<ellipse cx="-16.5216" cy="396.5" rx="66.5839" ry="66.5" fill="white" fill-opacity="0.22"/>
</g>
<path d="M1360 179C1345.42 179 1331.43 184.809 1321.11 195.149C1310.8 205.49 1305 219.514 1305 234.139C1305 264.6 1360 359 1360 359C1360 359 1415 264.6 1415 234.139C1415 219.516 1409.2 205.492 1398.89 195.152C1388.58 184.811 1374.59 179.002 1360 179ZM1360 262.365C1354.75 262.366 1349.62 260.805 1345.25 257.881C1340.88 254.956 1337.47 250.798 1335.46 245.933C1333.45 241.068 1332.93 235.715 1333.95 230.55C1334.97 225.385 1337.5 220.64 1341.22 216.916C1344.93 213.192 1349.66 210.655 1354.81 209.627C1359.97 208.599 1365.31 209.126 1370.16 211.141C1375.01 213.156 1379.16 216.569 1382.08 220.947C1385 225.326 1386.55 230.474 1386.55 235.74C1386.55 239.236 1385.87 242.698 1384.53 245.928C1383.2 249.159 1381.24 252.094 1378.78 254.566C1376.31 257.038 1373.39 259 1370.16 260.338C1366.94 261.676 1363.49 262.365 1360 262.365Z" fill="white"/>
<defs>
<linearGradient id="paint0_linear_175_168" x1="22.7304" y1="-178.322" x2="564.395" y2="715.794" gradientUnits="userSpaceOnUse">
<stop stop-color="#474ED3"/>
<stop offset="1" stop-color="#785BEB"/>
</linearGradient>
<clipPath id="clip0_175_168">
<rect width="1308" height="563.591" fill="white" transform="translate(252)"/>
</clipPath>
</defs>
</svg>
