<svg width="83" height="114" viewBox="0 0 83 114" fill="none" xmlns="http://www.w3.org/2000/svg">
<path opacity="0.2" d="M0 104.729V9.3318C0 1.85501 8.58845 -2.36148 14.5041 2.21104L79.3159 52.3079C84.1194 56.0208 83.944 63.3272 78.9678 66.8053L14.156 112.106C8.1904 116.275 0 112.007 0 104.729Z" fill="white"/>
<path d="M23 35C20.548 35 18.275 36.1673 17.0076 38.0765C15.7403 39.9854 15.6635 42.3587 16.8051 44.3326L22.1199 53.5165C22.2917 53.8138 22.6305 54 23 54C23.3694 54 23.7082 53.8138 23.8801 53.5165L29.1944 44.3326H29.1949C30.3365 42.3587 30.2597 39.9854 28.9924 38.0765C27.7251 36.1673 25.452 35 23 35H23ZM27.4342 43.4893L23 51.1525L18.5657 43.4893C17.7491 42.0764 17.8042 40.3784 18.7114 39.012C19.6186 37.6456 21.2451 36.8107 23 36.8107C24.7549 36.8107 26.3814 37.6456 27.2886 39.012C28.1958 40.3784 28.2509 42.0764 27.4343 43.4893H27.4342Z" fill="#37C8DC"/>
<path d="M23 39.0001C22.2042 39.0001 21.4415 39.3161 20.8786 39.8786C20.3161 40.4416 20 41.2043 20 42C20 42.7958 20.3161 43.5585 20.8786 44.1214C21.4415 44.6839 22.2042 45 23 45C23.7958 45 24.5585 44.6839 25.1214 44.1214C25.6839 43.5585 26 42.7958 26 42C25.9992 41.2047 25.6827 40.4423 25.1202 39.8798C24.5577 39.3173 23.7953 39.0008 22.9999 39L23 39.0001ZM23 43.1539C22.5335 43.1539 22.1128 42.8729 21.934 42.4418C21.7555 42.0104 21.854 41.5142 22.1841 41.1841C22.5142 40.854 23.0103 40.7556 23.4418 40.934C23.8729 41.1128 24.1539 41.5336 24.1539 42C24.1531 42.6367 23.6368 43.1531 23 43.1539L23 43.1539Z" fill="#37C8DC"/>
<path d="M15.8888 82H30.1111C30.3468 82 30.573 81.9028 30.7397 81.7299C30.9063 81.557 31 81.3223 31 81.0777V71.8553C30.9984 70.3883 30.4361 68.9814 29.4365 67.944C28.4365 66.9068 27.0805 66.3234 25.6666 66.3218H25.6393C26.6496 65.5481 27.2972 64.3669 27.4222 63.0708C27.5472 61.7743 27.1381 60.4835 26.2956 59.5172C25.4527 58.5513 24.2555 58 23 58C21.7445 58 20.5472 58.5513 19.7044 59.5172C18.8619 60.4835 18.4528 61.7743 18.5778 63.0708C18.7028 64.3669 19.3504 65.5481 20.3607 66.3218H20.3334C18.9195 66.3234 17.5635 66.9068 16.5635 67.944C15.5639 68.9815 15.0016 70.3883 15 71.8553V81.0777C15 81.3223 15.0937 81.557 15.2603 81.7299C15.427 81.9028 15.6531 82 15.8888 82ZM20.3333 62.6328C20.3333 61.8991 20.6142 61.195 21.1142 60.6763C21.6142 60.1576 22.2929 59.8661 22.9999 59.8661C23.707 59.8661 24.3857 60.1575 24.8856 60.6763C25.3855 61.1951 25.6665 61.8992 25.6665 62.6328C25.6665 63.3663 25.3856 64.0705 24.8856 64.5892C24.3856 65.1079 23.707 65.3995 22.9999 65.3995C22.2929 65.3995 21.6141 65.108 21.1142 64.5892C20.6143 64.0704 20.3333 63.3663 20.3333 62.6328ZM16.7777 71.8553C16.7777 70.877 17.1523 69.9387 17.819 69.2466C18.486 68.5549 19.3904 68.1663 20.3333 68.1663H25.6666C26.6095 68.1663 27.5139 68.5549 28.1809 69.2466C28.8476 69.9387 29.2222 70.877 29.2222 71.8553V80.1555H16.7777V71.8553Z" fill="#37C8DC"/>
<path d="M68.2509 24.0001C67.1562 24.0013 66.0955 24.377 65.2478 25.0635C64.3995 25.7501 63.8163 26.7058 63.5958 27.7693H52.5757C50.52 27.7672 48.5064 28.3431 46.7671 29.4297C45.0277 30.5163 43.6345 32.0694 42.7486 33.9095C42.6981 33.9095 42.6536 33.8943 42.6006 33.8943C40.9037 33.8943 39.3353 34.7924 38.4871 36.2501C37.6384 37.7077 37.6384 39.504 38.4871 40.9616C39.3353 42.4192 40.9037 43.3174 42.6006 43.3174C42.651 43.3174 42.6956 43.3043 42.7486 43.3022C43.6346 45.1422 45.0277 46.6954 46.7671 47.782C48.5064 48.8686 50.52 49.4445 52.5757 49.4424C54.7022 49.4369 56.7838 50.0507 58.5621 51.208C60.3404 52.3648 61.737 54.0139 62.5793 55.9511C61.4346 56.439 60.5291 57.354 60.0583 58.4982C59.5871 59.6424 59.5884 60.9242 60.0613 62.0676C60.5346 63.211 61.4413 64.1243 62.5869 64.6106C61.7408 66.5461 60.342 68.1935 58.563 69.3494C56.7838 70.5054 54.7027 71.1193 52.5757 71.1154H35V73H52.5757C55.1412 73.0042 57.649 72.2428 59.772 70.8142C61.8951 69.3855 63.5356 67.3563 64.4801 64.9904C66.1409 64.9357 67.6516 64.025 68.465 62.5879C69.2785 61.1509 69.2755 59.3971 68.4582 57.9626C67.6405 56.5282 66.1264 55.6216 64.466 55.572C63.5287 53.2036 61.8921 51.1709 59.7702 49.7407C57.6488 48.3109 55.141 47.5498 52.5756 47.5578C50.9466 47.5565 49.3485 47.1177 47.9506 46.2882C46.5523 45.4586 45.4067 44.2694 44.6353 42.8462C45.724 42.3398 46.5769 41.4408 47.0201 40.3319C47.4633 39.2234 47.4633 37.9883 47.0201 36.8798C46.5769 35.7709 45.724 34.8719 44.6353 34.3654C45.4068 32.9423 46.5523 31.753 47.9506 30.9235C49.3485 30.0939 50.9466 29.6552 52.5756 29.6539H63.5957C63.8366 30.8246 64.5169 31.8607 65.4991 32.5527C66.4809 33.2447 67.6913 33.5405 68.8852 33.3806C70.0792 33.2208 71.167 32.6171 71.9286 31.6916C72.6908 30.7665 73.07 29.5882 72.9893 28.396C72.9083 27.2038 72.3744 26.087 71.4947 25.2704C70.6147 24.4543 69.4552 24.0004 68.2507 24L68.2509 24.0001ZM67.3009 60.2793C67.3009 61.029 67.0006 61.7484 66.4662 62.2783C65.9318 62.8083 65.2066 63.1062 64.4509 63.1062C63.6952 63.1062 62.9698 62.8084 62.4356 62.2783C61.9013 61.7483 61.6009 61.0289 61.6009 60.2793C61.6009 59.5298 61.9012 58.8103 62.4356 58.2804C62.9699 57.7504 63.6952 57.4525 64.4509 57.4525C65.2066 57.4525 65.9319 57.7503 66.4662 58.2804C67.0005 58.8104 67.3009 59.5298 67.3009 60.2793ZM45.4506 38.6063C45.4506 39.356 45.1504 40.0754 44.616 40.6053C44.0816 41.1353 43.3563 41.4332 42.6006 41.4332C41.845 41.4332 41.1196 41.1354 40.5853 40.6053C40.051 40.0753 39.7507 39.3559 39.7507 38.6063C39.7507 37.8568 40.0509 37.1373 40.5853 36.6074C41.1197 36.0774 41.845 35.7795 42.6006 35.7795C43.3563 35.7795 44.0817 36.0773 44.616 36.6074C45.1503 37.1374 45.4506 37.8568 45.4506 38.6063ZM68.2509 31.5391C67.4951 31.5391 66.7698 31.2412 66.2355 30.7112C65.7013 30.1811 65.4009 29.4617 65.4009 28.7122C65.4009 27.9627 65.7012 27.2432 66.2355 26.7132C66.7699 26.1833 67.4952 25.8853 68.2509 25.8853C69.0065 25.8853 69.7319 26.1832 70.2662 26.7132C70.8005 27.2433 71.1009 27.9627 71.1009 28.7122C71.1009 29.4617 70.8006 30.1812 70.2662 30.7112C69.7318 31.2411 69.0065 31.5391 68.2509 31.5391Z" fill="white"/>
</svg>
